<svg xmlns="http://www.w3.org/2000/svg" xmlns:xlink="http://www.w3.org/1999/xlink" width="848" height="455" contentScriptType="application/ecmascript" contentStyleType="text/css" style="width:848px;height:455px" preserveAspectRatio="none" version="1.1" viewBox="0 0 848 455" zoomAndPan="magnify"><defs><filter id="f1sasfxa4blaaz" width="300%" height="300%" x="-1" y="-1"><feGaussianBlur result="blurOut" stdDeviation="2"/><feColorMatrix in="blurOut" result="blurOut2" type="matrix" values="0 0 0 0 0 0 0 0 0 0 0 0 0 0 0 0 0 0 .4 0"/><feOffset dx="4" dy="4" in="blurOut2" result="blurOut3"/><feBlend in="SourceGraphic" in2="blurOut3" mode="normal"/></filter></defs><g><text x="357" y="23.535" fill="#000" font-family="sans-serif" font-size="14" font-weight="bold" lengthAdjust="spacingAndGlyphs" textLength="132">Identity Resolving</text><line style="stroke:#878787;stroke-width:1;stroke-dasharray:5,5" x1="35" x2="35" y1="116.977" y2="368.15"/><line style="stroke:#878787;stroke-width:1;stroke-dasharray:5,5" x1="137" x2="137" y1="116.977" y2="368.15"/><line style="stroke:#878787;stroke-width:1;stroke-dasharray:5,5" x1="262" x2="262" y1="116.977" y2="368.15"/><line style="stroke:#878787;stroke-width:1;stroke-dasharray:5,5" x1="340" x2="340" y1="116.977" y2="368.15"/><line style="stroke:#878787;stroke-width:1;stroke-dasharray:5,5" x1="565.5" x2="565.5" y1="116.977" y2="368.15"/><text x="8" y="114.023" fill="#000" font-family="sans-serif" font-size="14" lengthAdjust="spacingAndGlyphs" textLength="48">Sender</text><ellipse cx="35" cy="43.488" fill="#FFF" filter="url(#f1sasfxa4blaaz)" rx="8" ry="8" style="stroke:#6959db;stroke-width:2"/><path fill="#FFF" d="M35,51.4883 L35,78.4883 M22,59.4883 L48,59.4883 M35,78.4883 L22,93.4883 M35,78.4883 L48,93.4883" filter="url(#f1sasfxa4blaaz)" style="stroke:#6959db;stroke-width:2"/><text x="8" y="380.685" fill="#000" font-family="sans-serif" font-size="14" lengthAdjust="spacingAndGlyphs" textLength="48">Sender</text><ellipse cx="35" cy="393.639" fill="#FFF" filter="url(#f1sasfxa4blaaz)" rx="8" ry="8" style="stroke:#6959db;stroke-width:2"/><path fill="#FFF" d="M35,401.6387 L35,428.6387 M22,409.6387 L48,409.6387 M35,428.6387 L22,443.6387 M35,428.6387 L48,443.6387" filter="url(#f1sasfxa4blaaz)" style="stroke:#6959db;stroke-width:2"/><rect style="stroke:#6959db;stroke-width:1.5" width="106" height="30.488" x="82" y="81.488" fill="#FFF" filter="url(#f1sasfxa4blaaz)" rx="5" ry="5"/><text x="89" y="102.023" fill="#000" font-family="sans-serif" font-size="14" lengthAdjust="spacingAndGlyphs" textLength="92">IdentityWallet</text><rect style="stroke:#6959db;stroke-width:1.5" width="106" height="30.488" x="82" y="367.15" fill="#FFF" filter="url(#f1sasfxa4blaaz)" rx="5" ry="5"/><text x="89" y="387.685" fill="#000" font-family="sans-serif" font-size="14" lengthAdjust="spacingAndGlyphs" textLength="92">IdentityWallet</text><text x="212" y="114.023" fill="#000" font-family="sans-serif" font-size="14" lengthAdjust="spacingAndGlyphs" textLength="94">UportRegistry</text><path fill="#FEFECE" d="M244,64.4883 C244,54.4883 262,54.4883 262,54.4883 C262,54.4883 280,54.4883 280,64.4883 L280,90.4883 C280,100.4883 262,100.4883 262,100.4883 C262,100.4883 244,100.4883 244,90.4883 L244,64.4883" filter="url(#f1sasfxa4blaaz)" style="stroke:#000;stroke-width:1.5"/><path fill="none" d="M244,64.4883 C244,74.4883 262,74.4883 262,74.4883 C262,74.4883 280,74.4883 280,64.4883" style="stroke:#000;stroke-width:1.5"/><text x="212" y="380.685" fill="#000" font-family="sans-serif" font-size="14" lengthAdjust="spacingAndGlyphs" textLength="94">UportRegistry</text><path fill="#FEFECE" d="M244,393.6387 C244,383.6387 262,383.6387 262,383.6387 C262,383.6387 280,383.6387 280,393.6387 L280,419.6387 C280,429.6387 262,429.6387 262,429.6387 C262,429.6387 244,429.6387 244,419.6387 L244,393.6387" filter="url(#f1sasfxa4blaaz)" style="stroke:#000;stroke-width:1.5"/><path fill="none" d="M244,393.6387 C244,403.6387 262,403.6387 262,403.6387 C262,403.6387 280,403.6387 280,393.6387" style="stroke:#000;stroke-width:1.5"/><text x="323" y="114.023" fill="#000" font-family="sans-serif" font-size="14" lengthAdjust="spacingAndGlyphs" textLength="28">IPFS</text><path fill="#FEFECE" d="M322,64.4883 C322,54.4883 340,54.4883 340,54.4883 C340,54.4883 358,54.4883 358,64.4883 L358,90.4883 C358,100.4883 340,100.4883 340,100.4883 C340,100.4883 322,100.4883 322,90.4883 L322,64.4883" filter="url(#f1sasfxa4blaaz)" style="stroke:#000;stroke-width:1.5"/><path fill="none" d="M322,64.4883 C322,74.4883 340,74.4883 340,74.4883 C340,74.4883 358,74.4883 358,64.4883" style="stroke:#000;stroke-width:1.5"/><text x="323" y="380.685" fill="#000" font-family="sans-serif" font-size="14" lengthAdjust="spacingAndGlyphs" textLength="28">IPFS</text><path fill="#FEFECE" d="M322,393.6387 C322,383.6387 340,383.6387 340,383.6387 C340,383.6387 358,383.6387 358,393.6387 L358,419.6387 C358,429.6387 340,429.6387 340,429.6387 C340,429.6387 322,429.6387 322,419.6387 L322,393.6387" filter="url(#f1sasfxa4blaaz)" style="stroke:#000;stroke-width:1.5"/><path fill="none" d="M322,393.6387 C322,403.6387 340,403.6387 340,403.6387 C340,403.6387 358,403.6387 358,393.6387" style="stroke:#000;stroke-width:1.5"/><text x="531.5" y="114.023" fill="#000" font-family="sans-serif" font-size="14" lengthAdjust="spacingAndGlyphs" textLength="63">Recipient</text><ellipse cx="566" cy="43.488" fill="#FFF" filter="url(#f1sasfxa4blaaz)" rx="8" ry="8" style="stroke:#6959db;stroke-width:2"/><path fill="#FFF" d="M566,51.4883 L566,78.4883 M553,59.4883 L579,59.4883 M566,78.4883 L553,93.4883 M566,78.4883 L579,93.4883" filter="url(#f1sasfxa4blaaz)" style="stroke:#6959db;stroke-width:2"/><text x="531.5" y="380.685" fill="#000" font-family="sans-serif" font-size="14" lengthAdjust="spacingAndGlyphs" textLength="63">Recipient</text><ellipse cx="566" cy="393.639" fill="#FFF" filter="url(#f1sasfxa4blaaz)" rx="8" ry="8" style="stroke:#6959db;stroke-width:2"/><path fill="#FFF" d="M566,401.6387 L566,428.6387 M553,409.6387 L579,409.6387 M566,428.6387 L553,443.6387 M566,428.6387 L579,443.6387" filter="url(#f1sasfxa4blaaz)" style="stroke:#6959db;stroke-width:2"/><polygon fill="#6959DB" points="125 143.977 135 147.977 125 151.977 129 147.977" style="stroke:#6959db;stroke-width:1"/><line style="stroke:#6959db;stroke-width:1" x1="35" x2="131" y1="147.977" y2="147.977"/><text x="42" y="143.545" fill="#000" font-family="sans-serif" font-size="13" lengthAdjust="spacingAndGlyphs" textLength="54">Sign JWT</text><polygon fill="#6959DB" points="46 173.287 36 177.287 46 181.287 42 177.287" style="stroke:#6959db;stroke-width:1"/><line style="stroke:#6959db;stroke-width:1" x1="40" x2="136" y1="177.287" y2="177.287"/><text x="52" y="172.856" fill="#000" font-family="sans-serif" font-size="13" lengthAdjust="spacingAndGlyphs" textLength="69">Signed JWT</text><polygon fill="#6959DB" points="554 202.598 564 206.598 554 210.598 558 206.598" style="stroke:#6959db;stroke-width:1"/><line style="stroke:#6959db;stroke-width:1" x1="35" x2="560" y1="206.598" y2="206.598"/><text x="42" y="202.166" fill="#000" font-family="sans-serif" font-size="13" lengthAdjust="spacingAndGlyphs" textLength="69">Signed JWT</text><polygon fill="#6959DB" points="273 231.908 263 235.908 273 239.908 269 235.908" style="stroke:#6959db;stroke-width:1"/><polygon fill="#6959DB" points="554 231.908 564 235.908 554 239.908 558 235.908" style="stroke:#6959db;stroke-width:1"/><line style="stroke:#6959db;stroke-width:1" x1="267" x2="560" y1="235.908" y2="235.908"/><text x="279" y="231.477" fill="#000" font-family="sans-serif" font-size="13" lengthAdjust="spacingAndGlyphs" textLength="154">Lookup IPFS hash for iss</text><polygon fill="#6959DB" points="351 261.219 341 265.219 351 269.219 347 265.219" style="stroke:#6959db;stroke-width:1"/><polygon fill="#6959DB" points="554 261.219 564 265.219 554 269.219 558 265.219" style="stroke:#6959db;stroke-width:1"/><line style="stroke:#6959db;stroke-width:1" x1="345" x2="560" y1="265.219" y2="265.219"/><text x="357" y="260.787" fill="#000" font-family="sans-serif" font-size="13" lengthAdjust="spacingAndGlyphs" textLength="202">Identity Document for IPFS hash</text><line style="stroke:#6959db;stroke-width:1" x1="566" x2="608" y1="294.84" y2="294.84"/><line style="stroke:#6959db;stroke-width:1" x1="608" x2="608" y1="294.84" y2="307.84"/><line style="stroke:#6959db;stroke-width:1" x1="567" x2="608" y1="307.84" y2="307.84"/><polygon fill="#6959DB" points="577 303.84 567 307.84 577 311.84 573 307.84" style="stroke:#6959db;stroke-width:1"/><text x="573" y="290.098" fill="#000" font-family="sans-serif" font-size="13" lengthAdjust="spacingAndGlyphs" textLength="263">Extract PublicKey from Identity Document</text><line style="stroke:#6959db;stroke-width:1" x1="566" x2="608" y1="337.15" y2="337.15"/><line style="stroke:#6959db;stroke-width:1" x1="608" x2="608" y1="337.15" y2="350.15"/><line style="stroke:#6959db;stroke-width:1" x1="567" x2="608" y1="350.15" y2="350.15"/><polygon fill="#6959DB" points="577 346.15 567 350.15 577 354.15 573 350.15" style="stroke:#6959db;stroke-width:1"/><text x="573" y="332.408" fill="#000" font-family="sans-serif" font-size="13" lengthAdjust="spacingAndGlyphs" textLength="202">Verify signature using PublicKey</text></g></svg>