<svg xmlns="http://www.w3.org/2000/svg" xmlns:xlink="http://www.w3.org/1999/xlink" width="933" height="527" contentScriptType="application/ecmascript" contentStyleType="text/css" style="width:933px;height:527px" preserveAspectRatio="none" version="1.1" viewBox="0 0 933 527" zoomAndPan="magnify"><defs><filter id="f11846picmkvt4" width="300%" height="300%" x="-1" y="-1"><feGaussianBlur result="blurOut" stdDeviation="2"/><feColorMatrix in="blurOut" result="blurOut2" type="matrix" values="0 0 0 0 0 0 0 0 0 0 0 0 0 0 0 0 0 0 .4 0"/><feOffset dx="4" dy="4" in="blurOut2" result="blurOut3"/><feBlend in="SourceGraphic" in2="blurOut3" mode="normal"/></filter></defs><g><text x="360.75" y="23.535" fill="#000" font-family="sans-serif" font-size="14" font-weight="bold" lengthAdjust="spacingAndGlyphs" textLength="208">Generic Identity Registration</text><line style="stroke:#878787;stroke-width:1;stroke-dasharray:5,5" x1="33" x2="33" y1="116.977" y2="439.772"/><line style="stroke:#878787;stroke-width:1;stroke-dasharray:5,5" x1="149" x2="149" y1="116.977" y2="439.772"/><line style="stroke:#878787;stroke-width:1;stroke-dasharray:5,5" x1="532" x2="532" y1="116.977" y2="439.772"/><line style="stroke:#878787;stroke-width:1;stroke-dasharray:5,5" x1="825.5" x2="825.5" y1="116.977" y2="439.772"/><line style="stroke:#878787;stroke-width:1;stroke-dasharray:5,5" x1="903.5" x2="903.5" y1="116.977" y2="439.772"/><text x="8" y="114.023" fill="#000" font-family="sans-serif" font-size="14" lengthAdjust="spacingAndGlyphs" textLength="45">Owner</text><ellipse cx="33.5" cy="43.488" fill="#FFF" filter="url(#f11846picmkvt4)" rx="8" ry="8" style="stroke:#6959db;stroke-width:2"/><path fill="#FFF" d="M33.5,51.4883 L33.5,78.4883 M20.5,59.4883 L46.5,59.4883 M33.5,78.4883 L20.5,93.4883 M33.5,78.4883 L46.5,93.4883" filter="url(#f11846picmkvt4)" style="stroke:#6959db;stroke-width:2"/><text x="8" y="452.307" fill="#000" font-family="sans-serif" font-size="14" lengthAdjust="spacingAndGlyphs" textLength="45">Owner</text><ellipse cx="33.5" cy="465.26" fill="#FFF" filter="url(#f11846picmkvt4)" rx="8" ry="8" style="stroke:#6959db;stroke-width:2"/><path fill="#FFF" d="M33.5,473.2598 L33.5,500.2598 M20.5,481.2598 L46.5,481.2598 M33.5,500.2598 L20.5,515.2598 M33.5,500.2598 L46.5,515.2598" filter="url(#f11846picmkvt4)" style="stroke:#6959db;stroke-width:2"/><rect style="stroke:#6959db;stroke-width:1.5" width="81" height="30.488" x="107" y="81.488" fill="#FFF" filter="url(#f11846picmkvt4)" rx="5" ry="5"/><text x="114" y="102.023" fill="#000" font-family="sans-serif" font-size="14" lengthAdjust="spacingAndGlyphs" textLength="67">UportApp</text><rect style="stroke:#6959db;stroke-width:1.5" width="81" height="30.488" x="107" y="438.772" fill="#FFF" filter="url(#f11846picmkvt4)" rx="5" ry="5"/><text x="114" y="459.307" fill="#000" font-family="sans-serif" font-size="14" lengthAdjust="spacingAndGlyphs" textLength="67">UportApp</text><rect style="stroke:#6959db;stroke-width:1.5" width="125" height="30.488" x="468" y="81.488" fill="#FFF" filter="url(#f11846picmkvt4)" rx="5" ry="5"/><text x="475" y="102.023" fill="#000" font-family="sans-serif" font-size="14" lengthAdjust="spacingAndGlyphs" textLength="111">IdentityManager</text><rect style="stroke:#6959db;stroke-width:1.5" width="125" height="30.488" x="468" y="438.772" fill="#FFF" filter="url(#f11846picmkvt4)" rx="5" ry="5"/><text x="475" y="459.307" fill="#000" font-family="sans-serif" font-size="14" lengthAdjust="spacingAndGlyphs" textLength="111">IdentityManager</text><text x="775.5" y="114.023" fill="#000" font-family="sans-serif" font-size="14" lengthAdjust="spacingAndGlyphs" textLength="94">UportRegistry</text><path fill="#FEFECE" d="M807.5,64.4883 C807.5,54.4883 825.5,54.4883 825.5,54.4883 C825.5,54.4883 843.5,54.4883 843.5,64.4883 L843.5,90.4883 C843.5,100.4883 825.5,100.4883 825.5,100.4883 C825.5,100.4883 807.5,100.4883 807.5,90.4883 L807.5,64.4883" filter="url(#f11846picmkvt4)" style="stroke:#000;stroke-width:1.5"/><path fill="none" d="M807.5,64.4883 C807.5,74.4883 825.5,74.4883 825.5,74.4883 C825.5,74.4883 843.5,74.4883 843.5,64.4883" style="stroke:#000;stroke-width:1.5"/><text x="775.5" y="452.307" fill="#000" font-family="sans-serif" font-size="14" lengthAdjust="spacingAndGlyphs" textLength="94">UportRegistry</text><path fill="#FEFECE" d="M807.5,465.2598 C807.5,455.2598 825.5,455.2598 825.5,455.2598 C825.5,455.2598 843.5,455.2598 843.5,465.2598 L843.5,491.2598 C843.5,501.2598 825.5,501.2598 825.5,501.2598 C825.5,501.2598 807.5,501.2598 807.5,491.2598 L807.5,465.2598" filter="url(#f11846picmkvt4)" style="stroke:#000;stroke-width:1.5"/><path fill="none" d="M807.5,465.2598 C807.5,475.2598 825.5,475.2598 825.5,475.2598 C825.5,475.2598 843.5,475.2598 843.5,465.2598" style="stroke:#000;stroke-width:1.5"/><text x="886.5" y="114.023" fill="#000" font-family="sans-serif" font-size="14" lengthAdjust="spacingAndGlyphs" textLength="28">IPFS</text><path fill="#FEFECE" d="M885.5,64.4883 C885.5,54.4883 903.5,54.4883 903.5,54.4883 C903.5,54.4883 921.5,54.4883 921.5,64.4883 L921.5,90.4883 C921.5,100.4883 903.5,100.4883 903.5,100.4883 C903.5,100.4883 885.5,100.4883 885.5,90.4883 L885.5,64.4883" filter="url(#f11846picmkvt4)" style="stroke:#000;stroke-width:1.5"/><path fill="none" d="M885.5,64.4883 C885.5,74.4883 903.5,74.4883 903.5,74.4883 C903.5,74.4883 921.5,74.4883 921.5,64.4883" style="stroke:#000;stroke-width:1.5"/><text x="886.5" y="452.307" fill="#000" font-family="sans-serif" font-size="14" lengthAdjust="spacingAndGlyphs" textLength="28">IPFS</text><path fill="#FEFECE" d="M885.5,465.2598 C885.5,455.2598 903.5,455.2598 903.5,455.2598 C903.5,455.2598 921.5,455.2598 921.5,465.2598 L921.5,491.2598 C921.5,501.2598 903.5,501.2598 903.5,501.2598 C903.5,501.2598 885.5,501.2598 885.5,491.2598 L885.5,465.2598" filter="url(#f11846picmkvt4)" style="stroke:#000;stroke-width:1.5"/><path fill="none" d="M885.5,465.2598 C885.5,475.2598 903.5,475.2598 903.5,475.2598 C903.5,475.2598 921.5,475.2598 921.5,465.2598" style="stroke:#000;stroke-width:1.5"/><polygon fill="#6959DB" points="137.5 143.977 147.5 147.977 137.5 151.977 141.5 147.977" style="stroke:#6959db;stroke-width:1"/><line style="stroke:#6959db;stroke-width:1" x1="33.5" x2="143.5" y1="147.977" y2="147.977"/><text x="40.5" y="143.545" fill="#000" font-family="sans-serif" font-size="13" lengthAdjust="spacingAndGlyphs" textLength="92">Create Identity</text><line style="stroke:#6959db;stroke-width:1" x1="149.5" x2="191.5" y1="177.598" y2="177.598"/><line style="stroke:#6959db;stroke-width:1" x1="191.5" x2="191.5" y1="177.598" y2="190.598"/><line style="stroke:#6959db;stroke-width:1" x1="150.5" x2="191.5" y1="190.598" y2="190.598"/><polygon fill="#6959DB" points="160.5 186.598 150.5 190.598 160.5 194.598 156.5 190.598" style="stroke:#6959db;stroke-width:1"/><text x="156.5" y="172.856" fill="#000" font-family="sans-serif" font-size="13" lengthAdjust="spacingAndGlyphs" textLength="104">Generate Key Pair</text><line style="stroke:#6959db;stroke-width:1" x1="149.5" x2="191.5" y1="219.908" y2="219.908"/><line style="stroke:#6959db;stroke-width:1" x1="191.5" x2="191.5" y1="219.908" y2="232.908"/><line style="stroke:#6959db;stroke-width:1" x1="150.5" x2="191.5" y1="232.908" y2="232.908"/><polygon fill="#6959DB" points="160.5 228.908 150.5 232.908 160.5 236.908 156.5 232.908" style="stroke:#6959db;stroke-width:1"/><text x="156.5" y="215.166" fill="#000" font-family="sans-serif" font-size="13" lengthAdjust="spacingAndGlyphs" textLength="161">Store private key securely</text><line style="stroke:#6959db;stroke-width:1" x1="149.5" x2="191.5" y1="262.219" y2="262.219"/><line style="stroke:#6959db;stroke-width:1" x1="191.5" x2="191.5" y1="262.219" y2="275.219"/><line style="stroke:#6959db;stroke-width:1" x1="150.5" x2="191.5" y1="275.219" y2="275.219"/><polygon fill="#6959DB" points="160.5 271.219 150.5 275.219 160.5 279.219 156.5 275.219" style="stroke:#6959db;stroke-width:1"/><text x="156.5" y="257.477" fill="#000" font-family="sans-serif" font-size="13" lengthAdjust="spacingAndGlyphs" textLength="110">Generate Address</text><polygon fill="#6959DB" points="520.5 300.219 530.5 304.219 520.5 308.219 524.5 304.219" style="stroke:#6959db;stroke-width:1"/><line style="stroke:#6959db;stroke-width:1" x1="149.5" x2="526.5" y1="304.219" y2="304.219"/><text x="156.5" y="299.787" fill="#000" font-family="sans-serif" font-size="13" lengthAdjust="spacingAndGlyphs" textLength="284">Generate Identity SmartContract on Ethereum</text><polygon fill="#6959DB" points="891.5 329.529 901.5 333.529 891.5 337.529 895.5 333.529" style="stroke:#6959db;stroke-width:1"/><line style="stroke:#6959db;stroke-width:1" x1="149.5" x2="897.5" y1="333.529" y2="333.529"/><text x="156.5" y="329.098" fill="#000" font-family="sans-serif" font-size="13" lengthAdjust="spacingAndGlyphs" textLength="311">Generate Identity Document containing PublicKey</text><polygon fill="#6959DB" points="160.5 358.84 150.5 362.84 160.5 366.84 156.5 362.84" style="stroke:#6959db;stroke-width:1"/><line style="stroke:#6959db;stroke-width:1" x1="154.5" x2="902.5" y1="362.84" y2="362.84"/><text x="166.5" y="358.408" fill="#000" font-family="sans-serif" font-size="13" lengthAdjust="spacingAndGlyphs" textLength="242">Return IPFS hash of Identity Document</text><polygon fill="#6959DB" points="520.5 388.15 530.5 392.15 520.5 396.15 524.5 392.15" style="stroke:#6959db;stroke-width:1"/><line style="stroke:#6959db;stroke-width:1" x1="149.5" x2="526.5" y1="392.15" y2="392.15"/><text x="156.5" y="387.719" fill="#000" font-family="sans-serif" font-size="13" lengthAdjust="spacingAndGlyphs" textLength="359">Request IdentityManager forward registration transaction</text><polygon fill="#6959DB" points="813.5 417.461 823.5 421.461 813.5 425.461 817.5 421.461" style="stroke:#6959db;stroke-width:1"/><line style="stroke:#6959db;stroke-width:1" x1="532.5" x2="819.5" y1="421.461" y2="421.461"/><text x="539.5" y="417.029" fill="#000" font-family="sans-serif" font-size="13" lengthAdjust="spacingAndGlyphs" textLength="269">Ethereum transaction registering IPFS hash</text></g></svg>