<svg xmlns="http://www.w3.org/2000/svg" xmlns:xlink="http://www.w3.org/1999/xlink" width="550" height="468" contentScriptType="application/ecmascript" contentStyleType="text/css" style="width:550px;height:468px" preserveAspectRatio="none" version="1.1" viewBox="0 0 550 468" zoomAndPan="magnify"><defs><filter id="f7waequpfspds" width="300%" height="300%" x="-1" y="-1"><feGaussianBlur result="blurOut" stdDeviation="2"/><feColorMatrix in="blurOut" result="blurOut2" type="matrix" values="0 0 0 0 0 0 0 0 0 0 0 0 0 0 0 0 0 0 .4 0"/><feOffset dx="4" dy="4" in="blurOut2" result="blurOut3"/><feBlend in="SourceGraphic" in2="blurOut3" mode="normal"/></filter></defs><g><text x="169.25" y="23.535" fill="#000" font-family="sans-serif" font-size="14" font-weight="bold" lengthAdjust="spacingAndGlyphs" textLength="208">Generic Identity Registration</text><line style="stroke:#878787;stroke-width:1;stroke-dasharray:5,5" x1="33" x2="33" y1="116.977" y2="381.15"/><line style="stroke:#878787;stroke-width:1;stroke-dasharray:5,5" x1="149.5" x2="149.5" y1="116.977" y2="381.15"/><line style="stroke:#878787;stroke-width:1;stroke-dasharray:5,5" x1="442.5" x2="442.5" y1="116.977" y2="381.15"/><line style="stroke:#878787;stroke-width:1;stroke-dasharray:5,5" x1="520.5" x2="520.5" y1="116.977" y2="381.15"/><text x="8" y="114.023" fill="#000" font-family="sans-serif" font-size="14" lengthAdjust="spacingAndGlyphs" textLength="45">Owner</text><ellipse cx="33.5" cy="43.488" fill="#FFF" filter="url(#f7waequpfspds)" rx="8" ry="8" style="stroke:#6959db;stroke-width:2"/><path fill="#FFF" d="M33.5,51.4883 L33.5,78.4883 M20.5,59.4883 L46.5,59.4883 M33.5,78.4883 L20.5,93.4883 M33.5,78.4883 L46.5,93.4883" filter="url(#f7waequpfspds)" style="stroke:#6959db;stroke-width:2"/><text x="8" y="393.685" fill="#000" font-family="sans-serif" font-size="14" lengthAdjust="spacingAndGlyphs" textLength="45">Owner</text><ellipse cx="33.5" cy="406.639" fill="#FFF" filter="url(#f7waequpfspds)" rx="8" ry="8" style="stroke:#6959db;stroke-width:2"/><path fill="#FFF" d="M33.5,414.6387 L33.5,441.6387 M20.5,422.6387 L46.5,422.6387 M33.5,441.6387 L20.5,456.6387 M33.5,441.6387 L46.5,456.6387" filter="url(#f7waequpfspds)" style="stroke:#6959db;stroke-width:2"/><rect style="stroke:#6959db;stroke-width:1.5" width="106" height="30.488" x="94.5" y="81.488" fill="#FFF" filter="url(#f7waequpfspds)" rx="5" ry="5"/><text x="101.5" y="102.023" fill="#000" font-family="sans-serif" font-size="14" lengthAdjust="spacingAndGlyphs" textLength="92">IdentityWallet</text><rect style="stroke:#6959db;stroke-width:1.5" width="106" height="30.488" x="94.5" y="380.15" fill="#FFF" filter="url(#f7waequpfspds)" rx="5" ry="5"/><text x="101.5" y="400.685" fill="#000" font-family="sans-serif" font-size="14" lengthAdjust="spacingAndGlyphs" textLength="92">IdentityWallet</text><text x="392.5" y="114.023" fill="#000" font-family="sans-serif" font-size="14" lengthAdjust="spacingAndGlyphs" textLength="94">UportRegistry</text><path fill="#FEFECE" d="M424.5,64.4883 C424.5,54.4883 442.5,54.4883 442.5,54.4883 C442.5,54.4883 460.5,54.4883 460.5,64.4883 L460.5,90.4883 C460.5,100.4883 442.5,100.4883 442.5,100.4883 C442.5,100.4883 424.5,100.4883 424.5,90.4883 L424.5,64.4883" filter="url(#f7waequpfspds)" style="stroke:#000;stroke-width:1.5"/><path fill="none" d="M424.5,64.4883 C424.5,74.4883 442.5,74.4883 442.5,74.4883 C442.5,74.4883 460.5,74.4883 460.5,64.4883" style="stroke:#000;stroke-width:1.5"/><text x="392.5" y="393.685" fill="#000" font-family="sans-serif" font-size="14" lengthAdjust="spacingAndGlyphs" textLength="94">UportRegistry</text><path fill="#FEFECE" d="M424.5,406.6387 C424.5,396.6387 442.5,396.6387 442.5,396.6387 C442.5,396.6387 460.5,396.6387 460.5,406.6387 L460.5,432.6387 C460.5,442.6387 442.5,442.6387 442.5,442.6387 C442.5,442.6387 424.5,442.6387 424.5,432.6387 L424.5,406.6387" filter="url(#f7waequpfspds)" style="stroke:#000;stroke-width:1.5"/><path fill="none" d="M424.5,406.6387 C424.5,416.6387 442.5,416.6387 442.5,416.6387 C442.5,416.6387 460.5,416.6387 460.5,406.6387" style="stroke:#000;stroke-width:1.5"/><text x="503.5" y="114.023" fill="#000" font-family="sans-serif" font-size="14" lengthAdjust="spacingAndGlyphs" textLength="28">IPFS</text><path fill="#FEFECE" d="M502.5,64.4883 C502.5,54.4883 520.5,54.4883 520.5,54.4883 C520.5,54.4883 538.5,54.4883 538.5,64.4883 L538.5,90.4883 C538.5,100.4883 520.5,100.4883 520.5,100.4883 C520.5,100.4883 502.5,100.4883 502.5,90.4883 L502.5,64.4883" filter="url(#f7waequpfspds)" style="stroke:#000;stroke-width:1.5"/><path fill="none" d="M502.5,64.4883 C502.5,74.4883 520.5,74.4883 520.5,74.4883 C520.5,74.4883 538.5,74.4883 538.5,64.4883" style="stroke:#000;stroke-width:1.5"/><text x="503.5" y="393.685" fill="#000" font-family="sans-serif" font-size="14" lengthAdjust="spacingAndGlyphs" textLength="28">IPFS</text><path fill="#FEFECE" d="M502.5,406.6387 C502.5,396.6387 520.5,396.6387 520.5,396.6387 C520.5,396.6387 538.5,396.6387 538.5,406.6387 L538.5,432.6387 C538.5,442.6387 520.5,442.6387 520.5,442.6387 C520.5,442.6387 502.5,442.6387 502.5,432.6387 L502.5,406.6387" filter="url(#f7waequpfspds)" style="stroke:#000;stroke-width:1.5"/><path fill="none" d="M502.5,406.6387 C502.5,416.6387 520.5,416.6387 520.5,416.6387 C520.5,416.6387 538.5,416.6387 538.5,406.6387" style="stroke:#000;stroke-width:1.5"/><polygon fill="#6959DB" points="137.5 143.977 147.5 147.977 137.5 151.977 141.5 147.977" style="stroke:#6959db;stroke-width:1"/><line style="stroke:#6959db;stroke-width:1" x1="33.5" x2="143.5" y1="147.977" y2="147.977"/><text x="40.5" y="143.545" fill="#000" font-family="sans-serif" font-size="13" lengthAdjust="spacingAndGlyphs" textLength="92">Create Identity</text><line style="stroke:#6959db;stroke-width:1" x1="149.5" x2="191.5" y1="177.598" y2="177.598"/><line style="stroke:#6959db;stroke-width:1" x1="191.5" x2="191.5" y1="177.598" y2="190.598"/><line style="stroke:#6959db;stroke-width:1" x1="150.5" x2="191.5" y1="190.598" y2="190.598"/><polygon fill="#6959DB" points="160.5 186.598 150.5 190.598 160.5 194.598 156.5 190.598" style="stroke:#6959db;stroke-width:1"/><text x="156.5" y="172.856" fill="#000" font-family="sans-serif" font-size="13" lengthAdjust="spacingAndGlyphs" textLength="104">Generate Key Pair</text><line style="stroke:#6959db;stroke-width:1" x1="149.5" x2="191.5" y1="219.908" y2="219.908"/><line style="stroke:#6959db;stroke-width:1" x1="191.5" x2="191.5" y1="219.908" y2="232.908"/><line style="stroke:#6959db;stroke-width:1" x1="150.5" x2="191.5" y1="232.908" y2="232.908"/><polygon fill="#6959DB" points="160.5 228.908 150.5 232.908 160.5 236.908 156.5 232.908" style="stroke:#6959db;stroke-width:1"/><text x="156.5" y="215.166" fill="#000" font-family="sans-serif" font-size="13" lengthAdjust="spacingAndGlyphs" textLength="161">Store private key securely</text><line style="stroke:#6959db;stroke-width:1" x1="149.5" x2="191.5" y1="262.219" y2="262.219"/><line style="stroke:#6959db;stroke-width:1" x1="191.5" x2="191.5" y1="262.219" y2="275.219"/><line style="stroke:#6959db;stroke-width:1" x1="150.5" x2="191.5" y1="275.219" y2="275.219"/><polygon fill="#6959DB" points="160.5 271.219 150.5 275.219 160.5 279.219 156.5 275.219" style="stroke:#6959db;stroke-width:1"/><text x="156.5" y="257.477" fill="#000" font-family="sans-serif" font-size="13" lengthAdjust="spacingAndGlyphs" textLength="110">Generate Address</text><polygon fill="#6959DB" points="508.5 300.219 518.5 304.219 508.5 308.219 512.5 304.219" style="stroke:#6959db;stroke-width:1"/><line style="stroke:#6959db;stroke-width:1" x1="149.5" x2="514.5" y1="304.219" y2="304.219"/><text x="156.5" y="299.787" fill="#000" font-family="sans-serif" font-size="13" lengthAdjust="spacingAndGlyphs" textLength="311">Generate Identity Document containing PublicKey</text><polygon fill="#6959DB" points="160.5 329.529 150.5 333.529 160.5 337.529 156.5 333.529" style="stroke:#6959db;stroke-width:1"/><line style="stroke:#6959db;stroke-width:1" x1="154.5" x2="519.5" y1="333.529" y2="333.529"/><text x="166.5" y="329.098" fill="#000" font-family="sans-serif" font-size="13" lengthAdjust="spacingAndGlyphs" textLength="242">Return IPFS hash of Identity Document</text><polygon fill="#6959DB" points="430.5 358.84 440.5 362.84 430.5 366.84 434.5 362.84" style="stroke:#6959db;stroke-width:1"/><line style="stroke:#6959db;stroke-width:1" x1="149.5" x2="436.5" y1="362.84" y2="362.84"/><text x="156.5" y="358.408" fill="#000" font-family="sans-serif" font-size="13" lengthAdjust="spacingAndGlyphs" textLength="269">Ethereum transaction registering IPFS hash</text></g></svg>