<svg xmlns="http://www.w3.org/2000/svg" xmlns:xlink="http://www.w3.org/1999/xlink" width="427" height="325" contentScriptType="application/ecmascript" contentStyleType="text/css" style="width:427px;height:325px" preserveAspectRatio="none" version="1.1" viewBox="0 0 427 325" zoomAndPan="magnify"><defs><filter id="fhrqfzmnnag0s" width="300%" height="300%" x="-1" y="-1"><feGaussianBlur result="blurOut" stdDeviation="2"/><feColorMatrix in="blurOut" result="blurOut2" type="matrix" values="0 0 0 0 0 0 0 0 0 0 0 0 0 0 0 0 0 0 .4 0"/><feOffset dx="4" dy="4" in="blurOut2" result="blurOut3"/><feBlend in="SourceGraphic" in2="blurOut3" mode="normal"/></filter></defs><g><text x="138.75" y="23.535" fill="#000" font-family="sans-serif" font-size="14" font-weight="bold" lengthAdjust="spacingAndGlyphs" textLength="146">Resolving PublicKey</text><line style="stroke:#878787;stroke-width:1;stroke-dasharray:5,5" x1="42" x2="42" y1="116.977" y2="237.908"/><line style="stroke:#878787;stroke-width:1;stroke-dasharray:5,5" x1="319.5" x2="319.5" y1="116.977" y2="237.908"/><line style="stroke:#878787;stroke-width:1;stroke-dasharray:5,5" x1="397.5" x2="397.5" y1="116.977" y2="237.908"/><text x="8" y="114.023" fill="#000" font-family="sans-serif" font-size="14" lengthAdjust="spacingAndGlyphs" textLength="63">Recipient</text><ellipse cx="42.5" cy="43.488" fill="#FFF" filter="url(#fhrqfzmnnag0s)" rx="8" ry="8" style="stroke:#6959db;stroke-width:2"/><path fill="#FFF" d="M42.5,51.4883 L42.5,78.4883 M29.5,59.4883 L55.5,59.4883 M42.5,78.4883 L29.5,93.4883 M42.5,78.4883 L55.5,93.4883" filter="url(#fhrqfzmnnag0s)" style="stroke:#6959db;stroke-width:2"/><text x="8" y="250.443" fill="#000" font-family="sans-serif" font-size="14" lengthAdjust="spacingAndGlyphs" textLength="63">Recipient</text><ellipse cx="42.5" cy="263.397" fill="#FFF" filter="url(#fhrqfzmnnag0s)" rx="8" ry="8" style="stroke:#6959db;stroke-width:2"/><path fill="#FFF" d="M42.5,271.3965 L42.5,298.3965 M29.5,279.3965 L55.5,279.3965 M42.5,298.3965 L29.5,313.3965 M42.5,298.3965 L55.5,313.3965" filter="url(#fhrqfzmnnag0s)" style="stroke:#6959db;stroke-width:2"/><text x="269.5" y="114.023" fill="#000" font-family="sans-serif" font-size="14" lengthAdjust="spacingAndGlyphs" textLength="94">UportRegistry</text><path fill="#FEFECE" d="M301.5,64.4883 C301.5,54.4883 319.5,54.4883 319.5,54.4883 C319.5,54.4883 337.5,54.4883 337.5,64.4883 L337.5,90.4883 C337.5,100.4883 319.5,100.4883 319.5,100.4883 C319.5,100.4883 301.5,100.4883 301.5,90.4883 L301.5,64.4883" filter="url(#fhrqfzmnnag0s)" style="stroke:#000;stroke-width:1.5"/><path fill="none" d="M301.5,64.4883 C301.5,74.4883 319.5,74.4883 319.5,74.4883 C319.5,74.4883 337.5,74.4883 337.5,64.4883" style="stroke:#000;stroke-width:1.5"/><text x="269.5" y="250.443" fill="#000" font-family="sans-serif" font-size="14" lengthAdjust="spacingAndGlyphs" textLength="94">UportRegistry</text><path fill="#FEFECE" d="M301.5,263.3965 C301.5,253.3965 319.5,253.3965 319.5,253.3965 C319.5,253.3965 337.5,253.3965 337.5,263.3965 L337.5,289.3965 C337.5,299.3965 319.5,299.3965 319.5,299.3965 C319.5,299.3965 301.5,299.3965 301.5,289.3965 L301.5,263.3965" filter="url(#fhrqfzmnnag0s)" style="stroke:#000;stroke-width:1.5"/><path fill="none" d="M301.5,263.3965 C301.5,273.3965 319.5,273.3965 319.5,273.3965 C319.5,273.3965 337.5,273.3965 337.5,263.3965" style="stroke:#000;stroke-width:1.5"/><text x="380.5" y="114.023" fill="#000" font-family="sans-serif" font-size="14" lengthAdjust="spacingAndGlyphs" textLength="28">IPFS</text><path fill="#FEFECE" d="M379.5,64.4883 C379.5,54.4883 397.5,54.4883 397.5,54.4883 C397.5,54.4883 415.5,54.4883 415.5,64.4883 L415.5,90.4883 C415.5,100.4883 397.5,100.4883 397.5,100.4883 C397.5,100.4883 379.5,100.4883 379.5,90.4883 L379.5,64.4883" filter="url(#fhrqfzmnnag0s)" style="stroke:#000;stroke-width:1.5"/><path fill="none" d="M379.5,64.4883 C379.5,74.4883 397.5,74.4883 397.5,74.4883 C397.5,74.4883 415.5,74.4883 415.5,64.4883" style="stroke:#000;stroke-width:1.5"/><text x="380.5" y="250.443" fill="#000" font-family="sans-serif" font-size="14" lengthAdjust="spacingAndGlyphs" textLength="28">IPFS</text><path fill="#FEFECE" d="M379.5,263.3965 C379.5,253.3965 397.5,253.3965 397.5,253.3965 C397.5,253.3965 415.5,253.3965 415.5,263.3965 L415.5,289.3965 C415.5,299.3965 397.5,299.3965 397.5,299.3965 C397.5,299.3965 379.5,299.3965 379.5,289.3965 L379.5,263.3965" filter="url(#fhrqfzmnnag0s)" style="stroke:#000;stroke-width:1.5"/><path fill="none" d="M379.5,263.3965 C379.5,273.3965 397.5,273.3965 397.5,273.3965 C397.5,273.3965 415.5,273.3965 415.5,263.3965" style="stroke:#000;stroke-width:1.5"/><polygon fill="#6959DB" points="53.5 143.977 43.5 147.977 53.5 151.977 49.5 147.977" style="stroke:#6959db;stroke-width:1"/><polygon fill="#6959DB" points="307.5 143.977 317.5 147.977 307.5 151.977 311.5 147.977" style="stroke:#6959db;stroke-width:1"/><line style="stroke:#6959db;stroke-width:1" x1="47.5" x2="313.5" y1="147.977" y2="147.977"/><text x="59.5" y="143.545" fill="#000" font-family="sans-serif" font-size="13" lengthAdjust="spacingAndGlyphs" textLength="178">Lookup IPFS hash for Sender</text><polygon fill="#6959DB" points="53.5 173.287 43.5 177.287 53.5 181.287 49.5 177.287" style="stroke:#6959db;stroke-width:1"/><polygon fill="#6959DB" points="385.5 173.287 395.5 177.287 385.5 181.287 389.5 177.287" style="stroke:#6959db;stroke-width:1"/><line style="stroke:#6959db;stroke-width:1" x1="47.5" x2="391.5" y1="177.287" y2="177.287"/><text x="59.5" y="172.856" fill="#000" font-family="sans-serif" font-size="13" lengthAdjust="spacingAndGlyphs" textLength="202">Identity Document for IPFS hash</text><line style="stroke:#6959db;stroke-width:1" x1="42.5" x2="84.5" y1="206.908" y2="206.908"/><line style="stroke:#6959db;stroke-width:1" x1="84.5" x2="84.5" y1="206.908" y2="219.908"/><line style="stroke:#6959db;stroke-width:1" x1="43.5" x2="84.5" y1="219.908" y2="219.908"/><polygon fill="#6959DB" points="53.5 215.908 43.5 219.908 53.5 223.908 49.5 219.908" style="stroke:#6959db;stroke-width:1"/><text x="49.5" y="202.166" fill="#000" font-family="sans-serif" font-size="13" lengthAdjust="spacingAndGlyphs" textLength="263">Extract PublicKey from Identity Document</text></g></svg>