<svg xmlns="http://www.w3.org/2000/svg" xmlns:xlink="http://www.w3.org/1999/xlink" width="391" height="341" contentScriptType="application/ecmascript" contentStyleType="text/css" style="width:391px;height:341px" preserveAspectRatio="none" version="1.1" viewBox="0 0 391 341" zoomAndPan="magnify"><defs><filter id="fw8e11w7en0a2" width="300%" height="300%" x="-1" y="-1"><feGaussianBlur result="blurOut" stdDeviation="2"/><feColorMatrix in="blurOut" result="blurOut2" type="matrix" values="0 0 0 0 0 0 0 0 0 0 0 0 0 0 0 0 0 0 .4 0"/><feOffset dx="4" dy="4" in="blurOut2" result="blurOut3"/><feBlend in="SourceGraphic" in2="blurOut3" mode="normal"/></filter></defs><g><text x="96.75" y="23.535" fill="#000" font-family="sans-serif" font-size="14" font-weight="bold" lengthAdjust="spacingAndGlyphs" textLength="200">Uport Generic Request Flow</text><line style="stroke:#878787;stroke-width:1;stroke-dasharray:5,5" x1="61" x2="61" y1="116.977" y2="254.219"/><line style="stroke:#878787;stroke-width:1;stroke-dasharray:5,5" x1="215.5" x2="215.5" y1="116.977" y2="254.219"/><line style="stroke:#878787;stroke-width:1;stroke-dasharray:5,5" x1="359.5" x2="359.5" y1="116.977" y2="254.219"/><rect style="stroke:#6959db;stroke-width:1.5" width="82" height="30.488" x="18" y="81.488" fill="#FFF" filter="url(#fw8e11w7en0a2)" rx="5" ry="5"/><text x="25" y="102.023" fill="#000" font-family="sans-serif" font-size="14" lengthAdjust="spacingAndGlyphs" textLength="68">ClientApp</text><rect style="stroke:#6959db;stroke-width:1.5" width="82" height="30.488" x="18" y="253.219" fill="#FFF" filter="url(#fw8e11w7en0a2)" rx="5" ry="5"/><text x="25" y="273.754" fill="#000" font-family="sans-serif" font-size="14" lengthAdjust="spacingAndGlyphs" textLength="68">ClientApp</text><rect style="stroke:#6959db;stroke-width:1.5" width="99" height="30.488" x="164.5" y="81.488" fill="#FFF" filter="url(#fw8e11w7en0a2)" rx="5" ry="5"/><text x="171.5" y="102.023" fill="#000" font-family="sans-serif" font-size="14" lengthAdjust="spacingAndGlyphs" textLength="85">UportMobile</text><rect style="stroke:#6959db;stroke-width:1.5" width="99" height="30.488" x="164.5" y="253.219" fill="#FFF" filter="url(#fw8e11w7en0a2)" rx="5" ry="5"/><text x="171.5" y="273.754" fill="#000" font-family="sans-serif" font-size="14" lengthAdjust="spacingAndGlyphs" textLength="85">UportMobile</text><text x="334.5" y="114.023" fill="#000" font-family="sans-serif" font-size="14" lengthAdjust="spacingAndGlyphs" textLength="45">Owner</text><ellipse cx="360" cy="43.488" fill="#FFF" filter="url(#fw8e11w7en0a2)" rx="8" ry="8" style="stroke:#6959db;stroke-width:2"/><path fill="#FFF" d="M360,51.4883 L360,78.4883 M347,59.4883 L373,59.4883 M360,78.4883 L347,93.4883 M360,78.4883 L373,93.4883" filter="url(#fw8e11w7en0a2)" style="stroke:#6959db;stroke-width:2"/><text x="334.5" y="266.754" fill="#000" font-family="sans-serif" font-size="14" lengthAdjust="spacingAndGlyphs" textLength="45">Owner</text><ellipse cx="360" cy="279.707" fill="#FFF" filter="url(#fw8e11w7en0a2)" rx="8" ry="8" style="stroke:#6959db;stroke-width:2"/><path fill="#FFF" d="M360,287.707 L360,314.707 M347,295.707 L373,295.707 M360,314.707 L347,329.707 M360,314.707 L373,329.707" filter="url(#fw8e11w7en0a2)" style="stroke:#6959db;stroke-width:2"/><polygon fill="#6959DB" points="204 143.977 214 147.977 204 151.977 208 147.977" style="stroke:#6959db;stroke-width:1"/><line style="stroke:#6959db;stroke-width:1" x1="61" x2="210" y1="147.977" y2="147.977"/><text x="68" y="143.545" fill="#000" font-family="sans-serif" font-size="13" lengthAdjust="spacingAndGlyphs" textLength="131">Signed Request (JWT)</text><polygon fill="#6959DB" points="348 173.287 358 177.287 348 181.287 352 177.287" style="stroke:#6959db;stroke-width:1"/><line style="stroke:#6959db;stroke-width:1" x1="216" x2="354" y1="177.287" y2="177.287"/><text x="223" y="172.856" fill="#000" font-family="sans-serif" font-size="13" lengthAdjust="spacingAndGlyphs" textLength="120">Authorize Request?</text><polygon fill="#6959DB" points="227 202.598 217 206.598 227 210.598 223 206.598" style="stroke:#6959db;stroke-width:1"/><line style="stroke:#6959db;stroke-width:1" x1="221" x2="359" y1="206.598" y2="206.598"/><text x="233" y="202.166" fill="#000" font-family="sans-serif" font-size="13" lengthAdjust="spacingAndGlyphs" textLength="96">Allow/Disallow</text><polygon fill="#6959DB" points="72 231.908 62 235.908 72 239.908 68 235.908" style="stroke:#6959db;stroke-width:1"/><line style="stroke:#6959db;stroke-width:1" x1="66" x2="215" y1="235.908" y2="235.908"/><text x="78" y="231.477" fill="#000" font-family="sans-serif" font-size="13" lengthAdjust="spacingAndGlyphs" textLength="60">Response</text></g></svg>