<svg xmlns="http://www.w3.org/2000/svg" xmlns:xlink="http://www.w3.org/1999/xlink" width="528" height="501" contentScriptType="application/ecmascript" contentStyleType="text/css" style="width:528px;height:501px" preserveAspectRatio="none" version="1.1" viewBox="0 0 528 501" zoomAndPan="magnify"><defs><filter id="f11cv51w1pz57u" width="300%" height="300%" x="-1" y="-1"><feGaussianBlur result="blurOut" stdDeviation="2"/><feColorMatrix in="blurOut" result="blurOut2" type="matrix" values="0 0 0 0 0 0 0 0 0 0 0 0 0 0 0 0 0 0 .4 0"/><feOffset dx="4" dy="4" in="blurOut2" result="blurOut3"/><feBlend in="SourceGraphic" in2="blurOut3" mode="normal"/></filter></defs><g><text x="140.5" y="23.535" fill="#000" font-family="sans-serif" font-size="14" font-weight="bold" lengthAdjust="spacingAndGlyphs" textLength="249">Example Identity Verification Flow</text><line style="stroke:#878787;stroke-width:1;stroke-dasharray:5,5" x1="47" x2="47" y1="116.977" y2="413.772"/><line style="stroke:#878787;stroke-width:1;stroke-dasharray:5,5" x1="261" x2="261" y1="116.977" y2="413.772"/><line style="stroke:#878787;stroke-width:1;stroke-dasharray:5,5" x1="496" x2="496" y1="116.977" y2="413.772"/><rect style="stroke:#6959db;stroke-width:1.5" width="55" height="30.488" x="18" y="81.488" fill="#FFF" filter="url(#f11cv51w1pz57u)" rx="5" ry="5"/><text x="25" y="102.023" fill="#000" font-family="sans-serif" font-size="14" lengthAdjust="spacingAndGlyphs" textLength="41">Issuer</text><rect style="stroke:#6959db;stroke-width:1.5" width="55" height="30.488" x="18" y="412.772" fill="#FFF" filter="url(#f11cv51w1pz57u)" rx="5" ry="5"/><text x="25" y="433.307" fill="#000" font-family="sans-serif" font-size="14" lengthAdjust="spacingAndGlyphs" textLength="41">Issuer</text><rect style="stroke:#6959db;stroke-width:1.5" width="99" height="30.488" x="210" y="81.488" fill="#FFF" filter="url(#f11cv51w1pz57u)" rx="5" ry="5"/><text x="217" y="102.023" fill="#000" font-family="sans-serif" font-size="14" lengthAdjust="spacingAndGlyphs" textLength="85">UportMobile</text><rect style="stroke:#6959db;stroke-width:1.5" width="99" height="30.488" x="210" y="412.772" fill="#FFF" filter="url(#f11cv51w1pz57u)" rx="5" ry="5"/><text x="217" y="433.307" fill="#000" font-family="sans-serif" font-size="14" lengthAdjust="spacingAndGlyphs" textLength="85">UportMobile</text><text x="471" y="114.023" fill="#000" font-family="sans-serif" font-size="14" lengthAdjust="spacingAndGlyphs" textLength="45">Owner</text><ellipse cx="496.5" cy="43.488" fill="#FFF" filter="url(#f11cv51w1pz57u)" rx="8" ry="8" style="stroke:#6959db;stroke-width:2"/><path fill="#FFF" d="M496.5,51.4883 L496.5,78.4883 M483.5,59.4883 L509.5,59.4883 M496.5,78.4883 L483.5,93.4883 M496.5,78.4883 L509.5,93.4883" filter="url(#f11cv51w1pz57u)" style="stroke:#6959db;stroke-width:2"/><text x="471" y="426.307" fill="#000" font-family="sans-serif" font-size="14" lengthAdjust="spacingAndGlyphs" textLength="45">Owner</text><ellipse cx="496.5" cy="439.26" fill="#FFF" filter="url(#f11cv51w1pz57u)" rx="8" ry="8" style="stroke:#6959db;stroke-width:2"/><path fill="#FFF" d="M496.5,447.2598 L496.5,474.2598 M483.5,455.2598 L509.5,455.2598 M496.5,474.2598 L483.5,489.2598 M496.5,474.2598 L509.5,489.2598" filter="url(#f11cv51w1pz57u)" style="stroke:#6959db;stroke-width:2"/><polygon fill="#6959DB" points="249.5 143.977 259.5 147.977 249.5 151.977 253.5 147.977" style="stroke:#6959db;stroke-width:1"/><line style="stroke:#6959db;stroke-width:1" x1="47.5" x2="255.5" y1="147.977" y2="147.977"/><text x="54.5" y="143.545" fill="#000" font-family="sans-serif" font-size="13" lengthAdjust="spacingAndGlyphs" textLength="180">Selective Disclosure Request</text><polygon fill="#6959DB" points="484.5 173.287 494.5 177.287 484.5 181.287 488.5 177.287" style="stroke:#6959db;stroke-width:1"/><line style="stroke:#6959db;stroke-width:1" x1="261.5" x2="490.5" y1="177.287" y2="177.287"/><text x="268.5" y="172.856" fill="#000" font-family="sans-serif" font-size="13" lengthAdjust="spacingAndGlyphs" textLength="120">Authorize Request?</text><polygon fill="#6959DB" points="272.5 202.598 262.5 206.598 272.5 210.598 268.5 206.598" style="stroke:#6959db;stroke-width:1"/><line style="stroke:#6959db;stroke-width:1" x1="266.5" x2="495.5" y1="206.598" y2="206.598"/><text x="278.5" y="202.166" fill="#000" font-family="sans-serif" font-size="13" lengthAdjust="spacingAndGlyphs" textLength="96">Allow/Disallow</text><line style="stroke:#6959db;stroke-width:1" x1="261.5" x2="303.5" y1="236.219" y2="236.219"/><line style="stroke:#6959db;stroke-width:1" x1="303.5" x2="303.5" y1="236.219" y2="249.219"/><line style="stroke:#6959db;stroke-width:1" x1="262.5" x2="303.5" y1="249.219" y2="249.219"/><polygon fill="#6959DB" points="272.5 245.219 262.5 249.219 272.5 253.219 268.5 249.219" style="stroke:#6959db;stroke-width:1"/><text x="268.5" y="231.477" fill="#000" font-family="sans-serif" font-size="13" lengthAdjust="spacingAndGlyphs" textLength="221">Sign Selective Disclosure Response</text><polygon fill="#6959DB" points="58.5 274.219 48.5 278.219 58.5 282.219 54.5 278.219" style="stroke:#6959db;stroke-width:1"/><line style="stroke:#6959db;stroke-width:1" x1="52.5" x2="260.5" y1="278.219" y2="278.219"/><text x="64.5" y="273.787" fill="#000" font-family="sans-serif" font-size="13" lengthAdjust="spacingAndGlyphs" textLength="190">Selective Disclosure Response</text><polygon fill="#6959DB" points="58.5 303.529 48.5 307.529 58.5 311.529 54.5 307.529" style="stroke:#6959db;stroke-width:1"/><line style="stroke:#6959db;stroke-width:1" x1="52.5" x2="495.5" y1="307.529" y2="307.529"/><text x="64.5" y="303.098" fill="#000" font-family="sans-serif" font-size="13" lengthAdjust="spacingAndGlyphs" textLength="92">Show passport</text><polygon fill="#6959DB" points="249.5 332.84 259.5 336.84 249.5 340.84 253.5 336.84" style="stroke:#6959db;stroke-width:1"/><line style="stroke:#6959db;stroke-width:1" x1="47.5" x2="255.5" y1="336.84" y2="336.84"/><text x="54.5" y="332.408" fill="#000" font-family="sans-serif" font-size="13" lengthAdjust="spacingAndGlyphs" textLength="72">Verification</text><polygon fill="#6959DB" points="484.5 362.15 494.5 366.15 484.5 370.15 488.5 366.15" style="stroke:#6959db;stroke-width:1"/><line style="stroke:#6959db;stroke-width:1" x1="261.5" x2="490.5" y1="366.15" y2="366.15"/><text x="268.5" y="361.719" fill="#000" font-family="sans-serif" font-size="13" lengthAdjust="spacingAndGlyphs" textLength="109">Show Verification</text><polygon fill="#6959DB" points="58.5 391.461 48.5 395.461 58.5 399.461 54.5 395.461" style="stroke:#6959db;stroke-width:1"/><line style="stroke:#6959db;stroke-width:1" x1="52.5" x2="260.5" y1="395.461" y2="395.461"/><text x="64.5" y="391.029" fill="#000" font-family="sans-serif" font-size="13" lengthAdjust="spacingAndGlyphs" textLength="116">Acknowledgement</text></g></svg>