<svg xmlns="http://www.w3.org/2000/svg" xmlns:xlink="http://www.w3.org/1999/xlink" width="402" height="384" contentScriptType="application/ecmascript" contentStyleType="text/css" style="width:402px;height:384px" preserveAspectRatio="none" version="1.1" viewBox="0 0 402 384" zoomAndPan="magnify"><defs><filter id="f1ucapqqg21kgp" width="300%" height="300%" x="-1" y="-1"><feGaussianBlur result="blurOut" stdDeviation="2"/><feColorMatrix in="blurOut" result="blurOut2" type="matrix" values="0 0 0 0 0 0 0 0 0 0 0 0 0 0 0 0 0 0 .4 0"/><feOffset dx="4" dy="4" in="blurOut2" result="blurOut3"/><feBlend in="SourceGraphic" in2="blurOut3" mode="normal"/></filter></defs><g><text x="76.75" y="23.535" fill="#000" font-family="sans-serif" font-size="14" font-weight="bold" lengthAdjust="spacingAndGlyphs" textLength="251">Uport Typed Data Signature Request Flow</text><line style="stroke:#878787;stroke-width:1;stroke-dasharray:5,5" x1="61" x2="61" y1="116.977" y2="296.529"/><line style="stroke:#878787;stroke-width:1;stroke-dasharray:5,5" x1="226.5" x2="226.5" y1="116.977" y2="296.529"/><line style="stroke:#878787;stroke-width:1;stroke-dasharray:5,5" x1="370.5" x2="370.5" y1="116.977" y2="296.529"/><rect style="stroke:#6959db;stroke-width:1.5" width="82" height="30.488" x="18" y="81.488" fill="#FFF" filter="url(#f1ucapqqg21kgp)" rx="5" ry="5"/><text x="25" y="102.023" fill="#000" font-family="sans-serif" font-size="14" lengthAdjust="spacingAndGlyphs" textLength="68">ClientApp</text><rect style="stroke:#6959db;stroke-width:1.5" width="82" height="30.488" x="18" y="295.529" fill="#FFF" filter="url(#f1ucapqqg21kgp)" rx="5" ry="5"/><text x="25" y="316.065" fill="#000" font-family="sans-serif" font-size="14" lengthAdjust="spacingAndGlyphs" textLength="68">ClientApp</text><rect style="stroke:#6959db;stroke-width:1.5" width="99" height="30.488" x="175.5" y="81.488" fill="#FFF" filter="url(#f1ucapqqg21kgp)" rx="5" ry="5"/><text x="182.5" y="102.023" fill="#000" font-family="sans-serif" font-size="14" lengthAdjust="spacingAndGlyphs" textLength="85">UportMobile</text><rect style="stroke:#6959db;stroke-width:1.5" width="99" height="30.488" x="175.5" y="295.529" fill="#FFF" filter="url(#f1ucapqqg21kgp)" rx="5" ry="5"/><text x="182.5" y="316.065" fill="#000" font-family="sans-serif" font-size="14" lengthAdjust="spacingAndGlyphs" textLength="85">UportMobile</text><text x="345.5" y="114.023" fill="#000" font-family="sans-serif" font-size="14" lengthAdjust="spacingAndGlyphs" textLength="45">Owner</text><ellipse cx="371" cy="43.488" fill="#FFF" filter="url(#f1ucapqqg21kgp)" rx="8" ry="8" style="stroke:#6959db;stroke-width:2"/><path fill="#FFF" d="M371,51.4883 L371,78.4883 M358,59.4883 L384,59.4883 M371,78.4883 L358,93.4883 M371,78.4883 L384,93.4883" filter="url(#f1ucapqqg21kgp)" style="stroke:#6959db;stroke-width:2"/><text x="345.5" y="309.065" fill="#000" font-family="sans-serif" font-size="14" lengthAdjust="spacingAndGlyphs" textLength="45">Owner</text><ellipse cx="371" cy="322.018" fill="#FFF" filter="url(#f1ucapqqg21kgp)" rx="8" ry="8" style="stroke:#6959db;stroke-width:2"/><path fill="#FFF" d="M371,330.0176 L371,357.0176 M358,338.0176 L384,338.0176 M371,357.0176 L358,372.0176 M371,357.0176 L384,372.0176" filter="url(#f1ucapqqg21kgp)" style="stroke:#6959db;stroke-width:2"/><polygon fill="#6959DB" points="215 143.977 225 147.977 215 151.977 219 147.977" style="stroke:#6959db;stroke-width:1"/><line style="stroke:#6959db;stroke-width:1" x1="61" x2="221" y1="147.977" y2="147.977"/><text x="68" y="143.545" fill="#000" font-family="sans-serif" font-size="13" lengthAdjust="spacingAndGlyphs" textLength="142">Personal Signature Request</text><polygon fill="#6959DB" points="359 173.287 369 177.287 359 181.287 363 177.287" style="stroke:#6959db;stroke-width:1"/><line style="stroke:#6959db;stroke-width:1" x1="227" x2="365" y1="177.287" y2="177.287"/><text x="234" y="172.856" fill="#000" font-family="sans-serif" font-size="13" lengthAdjust="spacingAndGlyphs" textLength="120">Authorize Request?</text><polygon fill="#6959DB" points="238 202.598 228 206.598 238 210.598 234 206.598" style="stroke:#6959db;stroke-width:1"/><line style="stroke:#6959db;stroke-width:1" x1="232" x2="370" y1="206.598" y2="206.598"/><text x="244" y="202.166" fill="#000" font-family="sans-serif" font-size="13" lengthAdjust="spacingAndGlyphs" textLength="96">Allow/Disallow</text><line style="stroke:#6959db;stroke-width:1" x1="227" x2="269" y1="236.219" y2="236.219"/><line style="stroke:#6959db;stroke-width:1" x1="269" x2="269" y1="236.219" y2="249.219"/><line style="stroke:#6959db;stroke-width:1" x1="228" x2="269" y1="249.219" y2="249.219"/><polygon fill="#6959DB" points="238 245.219 228 249.219 238 253.219 234 249.219" style="stroke:#6959db;stroke-width:1"/><text x="234" y="231.477" fill="#000" font-family="sans-serif" font-size="13" lengthAdjust="spacingAndGlyphs" textLength="119">Personal Sign</text><polygon fill="#6959DB" points="72 274.219 62 278.219 72 282.219 68 278.219" style="stroke:#6959db;stroke-width:1"/><line style="stroke:#6959db;stroke-width:1" x1="66" x2="226" y1="278.219" y2="278.219"/><text x="78" y="273.787" fill="#000" font-family="sans-serif" font-size="13" lengthAdjust="spacingAndGlyphs" textLength="122">Signature + Orig. Request</text></g></svg>