<svg xmlns="http://www.w3.org/2000/svg" xmlns:xlink="http://www.w3.org/1999/xlink" width="885" height="777" contentScriptType="application/ecmascript" contentStyleType="text/css" style="width:885px;height:777px" preserveAspectRatio="none" version="1.1" viewBox="0 0 885 777" zoomAndPan="magnify"><defs><filter id="fh92ayin8onky" width="300%" height="300%" x="-1" y="-1"><feGaussianBlur result="blurOut" stdDeviation="2"/><feColorMatrix in="blurOut" result="blurOut2" type="matrix" values="0 0 0 0 0 0 0 0 0 0 0 0 0 0 0 0 0 0 .4 0"/><feOffset dx="4" dy="4" in="blurOut2" result="blurOut3"/><feBlend in="SourceGraphic" in2="blurOut3" mode="normal"/></filter></defs><g><text x="370.5" y="22.995" fill="#000" font-family="sans-serif" font-size="14" font-weight="bold" lengthAdjust="spacingAndGlyphs" textLength="146">Private Chain Flow</text><rect style="stroke:#edecff;stroke-width:2" width="595.5" height="233.063" x="13" y="133.594" fill="#FFF" filter="url(#fh92ayin8onky)" rx="5" ry="5"/><rect style="stroke:#edecff;stroke-width:2" width="861" height="292.328" x="13" y="380.656" fill="#FFF" filter="url(#fh92ayin8onky)" rx="5" ry="5"/><line style="stroke:#878787;stroke-width:1;stroke-dasharray:5,5" x1="75" x2="75" y1="116.594" y2="689.984"/><line style="stroke:#878787;stroke-width:1;stroke-dasharray:5,5" x1="332.5" x2="332.5" y1="116.594" y2="689.984"/><line style="stroke:#878787;stroke-width:1;stroke-dasharray:5,5" x1="572.5" x2="572.5" y1="116.594" y2="689.984"/><line style="stroke:#878787;stroke-width:1;stroke-dasharray:5,5" x1="670.5" x2="670.5" y1="116.594" y2="689.984"/><line style="stroke:#878787;stroke-width:1;stroke-dasharray:5,5" x1="818" x2="818" y1="116.594" y2="689.984"/><rect style="stroke:#6959db;stroke-width:1.5" width="80" height="30.297" x="33" y="81.297" fill="#FFF" filter="url(#fh92ayin8onky)" rx="5" ry="5"/><text x="40" y="101.292" fill="#000" font-family="sans-serif" font-size="14" lengthAdjust="spacingAndGlyphs" textLength="66">ClientApp</text><rect style="stroke:#6959db;stroke-width:1.5" width="80" height="30.297" x="33" y="688.984" fill="#FFF" filter="url(#fh92ayin8onky)" rx="5" ry="5"/><text x="40" y="708.98" fill="#000" font-family="sans-serif" font-size="14" lengthAdjust="spacingAndGlyphs" textLength="66">ClientApp</text><rect style="stroke:#6959db;stroke-width:1.5" width="97" height="30.297" x="282.5" y="81.297" fill="#FFF" filter="url(#fh92ayin8onky)" rx="5" ry="5"/><text x="289.5" y="101.292" fill="#000" font-family="sans-serif" font-size="14" lengthAdjust="spacingAndGlyphs" textLength="83">UportMobile</text><rect style="stroke:#6959db;stroke-width:1.5" width="97" height="30.297" x="282.5" y="688.984" fill="#FFF" filter="url(#fh92ayin8onky)" rx="5" ry="5"/><text x="289.5" y="708.98" fill="#000" font-family="sans-serif" font-size="14" lengthAdjust="spacingAndGlyphs" textLength="83">UportMobile</text><text x="547.5" y="113.292" fill="#000" font-family="sans-serif" font-size="14" lengthAdjust="spacingAndGlyphs" textLength="45">Owner</text><ellipse cx="573" cy="43.297" fill="#FFF" filter="url(#fh92ayin8onky)" rx="8" ry="8" style="stroke:#6959db;stroke-width:2"/><path fill="none" d="M573,51.2969 L573,78.2969 M560,59.2969 L586,59.2969 M573,78.2969 L560,93.2969 M573,78.2969 L586,93.2969" filter="url(#fh92ayin8onky)" style="stroke:#6959db;stroke-width:2"/><text x="547.5" y="701.98" fill="#000" font-family="sans-serif" font-size="14" lengthAdjust="spacingAndGlyphs" textLength="45">Owner</text><ellipse cx="573" cy="715.281" fill="#FFF" filter="url(#fh92ayin8onky)" rx="8" ry="8" style="stroke:#6959db;stroke-width:2"/><path fill="none" d="M573,723.2813 L573,750.2813 M560,731.2813 L586,731.2813 M573,750.2813 L560,765.2813 M573,750.2813 L586,765.2813" filter="url(#fh92ayin8onky)" style="stroke:#6959db;stroke-width:2"/><rect style="stroke:#6959db;stroke-width:1.5" width="100" height="30.297" x="618.5" y="81.297" fill="#FFF" filter="url(#fh92ayin8onky)" rx="5" ry="5"/><text x="625.5" y="101.292" fill="#000" font-family="sans-serif" font-size="14" lengthAdjust="spacingAndGlyphs" textLength="86">RpcGateway</text><rect style="stroke:#6959db;stroke-width:1.5" width="100" height="30.297" x="618.5" y="688.984" fill="#FFF" filter="url(#fh92ayin8onky)" rx="5" ry="5"/><text x="625.5" y="708.98" fill="#000" font-family="sans-serif" font-size="14" lengthAdjust="spacingAndGlyphs" textLength="86">RpcGateway</text><text x="773" y="113.292" fill="#000" font-family="sans-serif" font-size="14" lengthAdjust="spacingAndGlyphs" textLength="85">PrivateChain</text><path fill="#FEFECE" d="M800.5,64.2969 C800.5,54.2969 818.5,54.2969 818.5,54.2969 C818.5,54.2969 836.5,54.2969 836.5,64.2969 L836.5,90.2969 C836.5,100.2969 818.5,100.2969 818.5,100.2969 C818.5,100.2969 800.5,100.2969 800.5,90.2969 L800.5,64.2969" filter="url(#fh92ayin8onky)" style="stroke:#000;stroke-width:1.5"/><path fill="none" d="M800.5,64.2969 C800.5,74.2969 818.5,74.2969 818.5,74.2969 C818.5,74.2969 836.5,74.2969 836.5,64.2969" style="stroke:#000;stroke-width:1.5"/><text x="773" y="701.98" fill="#000" font-family="sans-serif" font-size="14" lengthAdjust="spacingAndGlyphs" textLength="85">PrivateChain</text><path fill="#FEFECE" d="M800.5,715.2813 C800.5,705.2813 818.5,705.2813 818.5,705.2813 C818.5,705.2813 836.5,705.2813 836.5,715.2813 L836.5,741.2813 C836.5,751.2813 818.5,751.2813 818.5,751.2813 C818.5,751.2813 800.5,751.2813 800.5,741.2813 L800.5,715.2813" filter="url(#fh92ayin8onky)" style="stroke:#000;stroke-width:1.5"/><path fill="none" d="M800.5,715.2813 C800.5,725.2813 818.5,725.2813 818.5,725.2813 C818.5,725.2813 836.5,725.2813 836.5,715.2813" style="stroke:#000;stroke-width:1.5"/><path fill="#6959DB" d="M18,133.5938 L232,133.5938 L232,140.5938 L222,150.5938 L13,150.5938 L13,138.5938" style="stroke:#edecff;stroke-width:1"/><rect style="stroke:#edecff;stroke-width:2" width="595.5" height="233.063" x="13" y="133.594" fill="none" rx="5" ry="5"/><text x="28" y="146.661" fill="#FFF" font-family="sans-serif" font-size="13" font-weight="bold" lengthAdjust="spacingAndGlyphs" textLength="174">Private Chain Discovery</text><polygon fill="#6959DB" points="321 182.992 331 186.992 321 190.992 325 186.992" style="stroke:#6959db;stroke-width:1"/><line style="stroke:#6959db;stroke-width:1" x1="75" x2="327" y1="186.992" y2="186.992"/><text x="82" y="166.793" fill="#000" font-family="sans-serif" font-size="13" lengthAdjust="spacingAndGlyphs" textLength="184">Selective Disclosure Request</text><text x="86" y="181.926" fill="#000" font-family="sans-serif" font-size="13" lengthAdjust="spacingAndGlyphs" textLength="131">Provide rpc endpoint</text><polygon fill="#6959DB" points="561 212.125 571 216.125 561 220.125 565 216.125" style="stroke:#6959db;stroke-width:1"/><line style="stroke:#6959db;stroke-width:1" x1="333" x2="567" y1="216.125" y2="216.125"/><text x="340" y="211.059" fill="#000" font-family="sans-serif" font-size="13" lengthAdjust="spacingAndGlyphs" textLength="124">Authorize Request?</text><polygon fill="#6959DB" points="344 241.258 334 245.258 344 249.258 340 245.258" style="stroke:#6959db;stroke-width:1"/><line style="stroke:#6959db;stroke-width:1" x1="338" x2="572" y1="245.258" y2="245.258"/><text x="350" y="240.192" fill="#000" font-family="sans-serif" font-size="13" lengthAdjust="spacingAndGlyphs" textLength="87">Allow/Disallow</text><line style="stroke:#6959db;stroke-width:1" x1="333" x2="375" y1="274.391" y2="274.391"/><line style="stroke:#6959db;stroke-width:1" x1="375" x2="375" y1="274.391" y2="287.391"/><line style="stroke:#6959db;stroke-width:1" x1="334" x2="375" y1="287.391" y2="287.391"/><polygon fill="#6959DB" points="344 283.391 334 287.391 344 291.391 340 287.391" style="stroke:#6959db;stroke-width:1"/><text x="340" y="269.325" fill="#000" font-family="sans-serif" font-size="13" lengthAdjust="spacingAndGlyphs" textLength="175">Store netId -&gt; rpc endpoint</text><line style="stroke:#6959db;stroke-width:1" x1="333" x2="375" y1="316.523" y2="316.523"/><line style="stroke:#6959db;stroke-width:1" x1="375" x2="375" y1="316.523" y2="329.523"/><line style="stroke:#6959db;stroke-width:1" x1="334" x2="375" y1="329.523" y2="329.523"/><polygon fill="#6959DB" points="344 325.523 334 329.523 344 333.523 340 329.523" style="stroke:#6959db;stroke-width:1"/><text x="340" y="311.457" fill="#000" font-family="sans-serif" font-size="13" lengthAdjust="spacingAndGlyphs" textLength="226">Sign Selective Disclosure Response</text><polygon fill="#6959DB" points="86 354.656 76 358.656 86 362.656 82 358.656" style="stroke:#6959db;stroke-width:1"/><line style="stroke:#6959db;stroke-width:1" x1="80" x2="332" y1="358.656" y2="358.656"/><text x="92" y="353.59" fill="#000" font-family="sans-serif" font-size="13" lengthAdjust="spacingAndGlyphs" textLength="194">Selective Disclosure Response</text><path fill="#6959DB" d="M18,380.6563 L240,380.6563 L240,387.6563 L230,397.6563 L13,397.6563 L13,385.6563" style="stroke:#edecff;stroke-width:1"/><rect style="stroke:#edecff;stroke-width:2" width="861" height="292.328" x="13" y="380.656" fill="none" rx="5" ry="5"/><text x="28" y="393.723" fill="#FFF" font-family="sans-serif" font-size="13" font-weight="bold" lengthAdjust="spacingAndGlyphs" textLength="182">Private Chain Interaction</text><polygon fill="#6959DB" points="321 414.922 331 418.922 321 422.922 325 418.922" style="stroke:#6959db;stroke-width:1"/><line style="stroke:#6959db;stroke-width:1" x1="75" x2="327" y1="418.922" y2="418.922"/><text x="82" y="413.856" fill="#000" font-family="sans-serif" font-size="13" lengthAdjust="spacingAndGlyphs" textLength="234">Send Ethereum Transaction Request</text><polygon fill="#6959DB" points="561 444.055 571 448.055 561 452.055 565 448.055" style="stroke:#6959db;stroke-width:1"/><line style="stroke:#6959db;stroke-width:1" x1="333" x2="567" y1="448.055" y2="448.055"/><text x="340" y="442.989" fill="#000" font-family="sans-serif" font-size="13" lengthAdjust="spacingAndGlyphs" textLength="124">Authorize Request?</text><polygon fill="#6959DB" points="344 473.188 334 477.188 344 481.188 340 477.188" style="stroke:#6959db;stroke-width:1"/><line style="stroke:#6959db;stroke-width:1" x1="338" x2="572" y1="477.188" y2="477.188"/><text x="350" y="472.122" fill="#000" font-family="sans-serif" font-size="13" lengthAdjust="spacingAndGlyphs" textLength="87">Allow/Disallow</text><line style="stroke:#6959db;stroke-width:1" x1="333" x2="375" y1="506.32" y2="506.32"/><line style="stroke:#6959db;stroke-width:1" x1="375" x2="375" y1="506.32" y2="519.32"/><line style="stroke:#6959db;stroke-width:1" x1="334" x2="375" y1="519.32" y2="519.32"/><polygon fill="#6959DB" points="344 515.32 334 519.32 344 523.32 340 519.32" style="stroke:#6959db;stroke-width:1"/><text x="340" y="501.254" fill="#000" font-family="sans-serif" font-size="13" lengthAdjust="spacingAndGlyphs" textLength="106">Sign Transaction</text><polygon fill="#6959DB" points="658.5 544.453 668.5 548.453 658.5 552.453 662.5 548.453" style="stroke:#6959db;stroke-width:1"/><line style="stroke:#6959db;stroke-width:1" x1="333" x2="664.5" y1="548.453" y2="548.453"/><text x="340" y="543.387" fill="#000" font-family="sans-serif" font-size="13" lengthAdjust="spacingAndGlyphs" textLength="109">Send transaction</text><polygon fill="#6959DB" points="806.5 573.586 816.5 577.586 806.5 581.586 810.5 577.586" style="stroke:#6959db;stroke-width:1"/><line style="stroke:#6959db;stroke-width:1" x1="670.5" x2="812.5" y1="577.586" y2="577.586"/><text x="677.5" y="572.52" fill="#000" font-family="sans-serif" font-size="13" lengthAdjust="spacingAndGlyphs" textLength="124">Submit Transaction</text><polygon fill="#6959DB" points="344 602.719 334 606.719 344 610.719 340 606.719" style="stroke:#6959db;stroke-width:1"/><line style="stroke:#6959db;stroke-width:1" x1="338" x2="669.5" y1="606.719" y2="606.719"/><text x="350" y="601.653" fill="#000" font-family="sans-serif" font-size="13" lengthAdjust="spacingAndGlyphs" textLength="122">Signed Transaction</text><polygon fill="#6959DB" points="86 631.852 76 635.852 86 639.852 82 635.852" style="stroke:#6959db;stroke-width:1"/><line style="stroke:#6959db;stroke-width:1" x1="80" x2="332" y1="635.852" y2="635.852"/><text x="92" y="630.786" fill="#000" font-family="sans-serif" font-size="13" lengthAdjust="spacingAndGlyphs" textLength="111">Transaction Hash</text><polygon fill="#6959DB" points="86 660.984 76 664.984 86 668.984 82 664.984" style="stroke:#6959db;stroke-width:1"/><polygon fill="#6959DB" points="806.5 660.984 816.5 664.984 806.5 668.984 810.5 664.984" style="stroke:#6959db;stroke-width:1"/><line style="stroke:#6959db;stroke-width:1" x1="80" x2="812.5" y1="664.984" y2="664.984"/><text x="92" y="659.918" fill="#000" font-family="sans-serif" font-size="13" lengthAdjust="spacingAndGlyphs" textLength="160">Transaction Confirmation</text></g></svg>