<svg xmlns="http://www.w3.org/2000/svg" xmlns:xlink="http://www.w3.org/1999/xlink" width="1164" height="723" contentScriptType="application/ecmascript" contentStyleType="text/css" style="width:1164px;height:723px" preserveAspectRatio="none" version="1.1" viewBox="0 0 1164 723" zoomAndPan="magnify"><defs><filter id="fwpp1vh0r22ql" width="300%" height="300%" x="-1" y="-1"><feGaussianBlur result="blurOut" stdDeviation="2"/><feColorMatrix in="blurOut" result="blurOut2" type="matrix" values="0 0 0 0 0 0 0 0 0 0 0 0 0 0 0 0 0 0 .4 0"/><feOffset dx="4" dy="4" in="blurOut2" result="blurOut3"/><feBlend in="SourceGraphic" in2="blurOut3" mode="normal"/></filter></defs><g><text x="384" y="23.535" fill="#000" font-family="sans-serif" font-size="14" font-weight="bold" lengthAdjust="spacingAndGlyphs" textLength="398">Desktop Web Server App to Uport Mobile Request Flow</text><rect style="stroke:#edecff;stroke-width:2" width="1140" height="277.795" x="13" y="133.977" fill="#FFF" filter="url(#fwpp1vh0r22ql)"/><rect style="stroke:#edecff;stroke-width:2" width="1140" height="193.174" x="13" y="425.772" fill="#FFF" filter="url(#fwpp1vh0r22ql)"/><line style="stroke:#878787;stroke-width:1;stroke-dasharray:5,5" x1="76" x2="76" y1="116.977" y2="635.945"/><line style="stroke:#878787;stroke-width:1;stroke-dasharray:5,5" x1="506" x2="506" y1="116.977" y2="635.945"/><line style="stroke:#878787;stroke-width:1;stroke-dasharray:5,5" x1="650" x2="650" y1="116.977" y2="635.945"/><line style="stroke:#878787;stroke-width:1;stroke-dasharray:5,5" x1="778" x2="778" y1="116.977" y2="635.945"/><line style="stroke:#878787;stroke-width:1;stroke-dasharray:5,5" x1="1117" x2="1117" y1="116.977" y2="635.945"/><rect style="stroke:#6959db;stroke-width:1.5" width="82" height="30.488" x="33" y="81.488" fill="#FFF" filter="url(#fwpp1vh0r22ql)" rx="5" ry="5"/><text x="40" y="102.023" fill="#000" font-family="sans-serif" font-size="14" lengthAdjust="spacingAndGlyphs" textLength="68">ClientApp</text><rect style="stroke:#6959db;stroke-width:1.5" width="82" height="30.488" x="33" y="634.945" fill="#FFF" filter="url(#fwpp1vh0r22ql)" rx="5" ry="5"/><text x="40" y="655.481" fill="#000" font-family="sans-serif" font-size="14" lengthAdjust="spacingAndGlyphs" textLength="68">ClientApp</text><rect style="stroke:#6959db;stroke-width:1.5" width="130" height="30.488" x="439" y="81.488" fill="#FFF" filter="url(#fwpp1vh0r22ql)" rx="5" ry="5"/><text x="446" y="102.023" fill="#000" font-family="sans-serif" font-size="14" lengthAdjust="spacingAndGlyphs" textLength="116">MessagingServer</text><rect style="stroke:#6959db;stroke-width:1.5" width="130" height="30.488" x="439" y="634.945" fill="#FFF" filter="url(#fwpp1vh0r22ql)" rx="5" ry="5"/><text x="446" y="655.481" fill="#000" font-family="sans-serif" font-size="14" lengthAdjust="spacingAndGlyphs" textLength="116">MessagingServer</text><rect style="stroke:#6959db;stroke-width:1.5" width="90" height="30.488" x="603" y="81.488" fill="#FFF" filter="url(#fwpp1vh0r22ql)" rx="5" ry="5"/><text x="610" y="102.023" fill="#000" font-family="sans-serif" font-size="14" lengthAdjust="spacingAndGlyphs" textLength="76">PushServer</text><rect style="stroke:#6959db;stroke-width:1.5" width="90" height="30.488" x="603" y="634.945" fill="#FFF" filter="url(#fwpp1vh0r22ql)" rx="5" ry="5"/><text x="610" y="655.481" fill="#000" font-family="sans-serif" font-size="14" lengthAdjust="spacingAndGlyphs" textLength="76">PushServer</text><rect style="stroke:#6959db;stroke-width:1.5" width="99" height="30.488" x="727" y="81.488" fill="#FFF" filter="url(#fwpp1vh0r22ql)" rx="5" ry="5"/><text x="734" y="102.023" fill="#000" font-family="sans-serif" font-size="14" lengthAdjust="spacingAndGlyphs" textLength="85">UportMobile</text><rect style="stroke:#6959db;stroke-width:1.5" width="99" height="30.488" x="727" y="634.945" fill="#FFF" filter="url(#fwpp1vh0r22ql)" rx="5" ry="5"/><text x="734" y="655.481" fill="#000" font-family="sans-serif" font-size="14" lengthAdjust="spacingAndGlyphs" textLength="85">UportMobile</text><text x="1092" y="114.023" fill="#000" font-family="sans-serif" font-size="14" lengthAdjust="spacingAndGlyphs" textLength="45">Owner</text><ellipse cx="1117.5" cy="43.488" fill="#FFF" filter="url(#fwpp1vh0r22ql)" rx="8" ry="8" style="stroke:#6959db;stroke-width:2"/><path fill="#FFF" d="M1117.5,51.4883 L1117.5,78.4883 M1104.5,59.4883 L1130.5,59.4883 M1117.5,78.4883 L1104.5,93.4883 M1117.5,78.4883 L1130.5,93.4883" filter="url(#fwpp1vh0r22ql)" style="stroke:#6959db;stroke-width:2"/><text x="1092" y="648.481" fill="#000" font-family="sans-serif" font-size="14" lengthAdjust="spacingAndGlyphs" textLength="45">Owner</text><ellipse cx="1117.5" cy="661.434" fill="#FFF" filter="url(#fwpp1vh0r22ql)" rx="8" ry="8" style="stroke:#6959db;stroke-width:2"/><path fill="#FFF" d="M1117.5,669.4336 L1117.5,696.4336 M1104.5,677.4336 L1130.5,677.4336 M1117.5,696.4336 L1104.5,711.4336 M1117.5,696.4336 L1130.5,711.4336" filter="url(#fwpp1vh0r22ql)" style="stroke:#6959db;stroke-width:2"/><rect style="stroke:#edecff;stroke-width:2" width="1140" height="277.795" x="13" y="133.977" fill="none"/><polygon fill="#6959DB" points="13 133.977 223 133.977 223 140.977 213 150.977 13 150.977 13 133.977" style="stroke:#edecff;stroke-width:2"/><text x="28" y="147.545" fill="#FFF" font-family="sans-serif" font-size="13" font-weight="bold" lengthAdjust="spacingAndGlyphs" textLength="165">App Request Permission</text><line style="stroke:#6959db;stroke-width:1" x1="76" x2="118" y1="172.598" y2="172.598"/><line style="stroke:#6959db;stroke-width:1" x1="118" x2="118" y1="172.598" y2="185.598"/><line style="stroke:#6959db;stroke-width:1" x1="77" x2="118" y1="185.598" y2="185.598"/><polygon fill="#6959DB" points="87 181.598 77 185.598 87 189.598 83 185.598" style="stroke:#6959db;stroke-width:1"/><text x="83" y="167.856" fill="#000" font-family="sans-serif" font-size="13" lengthAdjust="spacingAndGlyphs" textLength="416">Selective Disclosure Request requesting notifications permissions</text><polygon fill="#6959DB" points="1105.5 210.598 1115.5 214.598 1105.5 218.598 1109.5 214.598" style="stroke:#6959db;stroke-width:1"/><line style="stroke:#6959db;stroke-width:1" x1="76" x2="1111.5" y1="214.598" y2="214.598"/><text x="83" y="210.166" fill="#000" font-family="sans-serif" font-size="13" lengthAdjust="spacingAndGlyphs" textLength="211">Show QR code containing request</text><polygon fill="#6959DB" points="789.5 239.908 779.5 243.908 789.5 247.908 785.5 243.908" style="stroke:#6959db;stroke-width:1"/><line style="stroke:#6959db;stroke-width:1" x1="783.5" x2="1116.5" y1="243.908" y2="243.908"/><text x="795.5" y="239.477" fill="#000" font-family="sans-serif" font-size="13" lengthAdjust="spacingAndGlyphs" textLength="92">Scans QR code</text><polygon fill="#6959DB" points="1105.5 269.219 1115.5 273.219 1105.5 277.219 1109.5 273.219" style="stroke:#6959db;stroke-width:1"/><line style="stroke:#6959db;stroke-width:1" x1="778.5" x2="1111.5" y1="273.219" y2="273.219"/><text x="785.5" y="268.787" fill="#000" font-family="sans-serif" font-size="13" lengthAdjust="spacingAndGlyphs" textLength="120">Authorize Request?</text><polygon fill="#6959DB" points="789.5 298.529 779.5 302.529 789.5 306.529 785.5 302.529" style="stroke:#6959db;stroke-width:1"/><line style="stroke:#6959db;stroke-width:1" x1="783.5" x2="1116.5" y1="302.529" y2="302.529"/><text x="795.5" y="298.098" fill="#000" font-family="sans-serif" font-size="13" lengthAdjust="spacingAndGlyphs" textLength="96">Allow/Disallow</text><line style="stroke:#6959db;stroke-width:1" x1="778.5" x2="820.5" y1="332.15" y2="332.15"/><line style="stroke:#6959db;stroke-width:1" x1="820.5" x2="820.5" y1="332.15" y2="345.15"/><line style="stroke:#6959db;stroke-width:1" x1="779.5" x2="820.5" y1="345.15" y2="345.15"/><polygon fill="#6959DB" points="789.5 341.15 779.5 345.15 789.5 349.15 785.5 345.15" style="stroke:#6959db;stroke-width:1"/><text x="785.5" y="327.408" fill="#000" font-family="sans-serif" font-size="13" lengthAdjust="spacingAndGlyphs" textLength="325">Sign Selective Disclosure Response with PushToken</text><polygon fill="#6959DB" points="517 370.15 507 374.15 517 378.15 513 374.15" style="stroke:#6959db;stroke-width:1"/><line style="stroke:#6959db;stroke-width:1" x1="511" x2="777.5" y1="374.15" y2="374.15"/><text x="523" y="369.719" fill="#000" font-family="sans-serif" font-size="13" lengthAdjust="spacingAndGlyphs" textLength="190">Selective Disclosure Response</text><polygon fill="#6959DB" points="87 399.461 77 403.461 87 407.461 83 403.461" style="stroke:#6959db;stroke-width:1"/><line style="stroke:#6959db;stroke-width:1" x1="81" x2="505" y1="403.461" y2="403.461"/><text x="93" y="399.029" fill="#000" font-family="sans-serif" font-size="13" lengthAdjust="spacingAndGlyphs" textLength="190">Selective Disclosure Response</text><rect style="stroke:#edecff;stroke-width:2" width="1140" height="193.174" x="13" y="425.772" fill="none"/><polygon fill="#6959DB" points="13 425.772 150 425.772 150 432.772 140 442.772 13 442.772 13 425.772" style="stroke:#edecff;stroke-width:2"/><text x="28" y="439.34" fill="#FFF" font-family="sans-serif" font-size="13" font-weight="bold" lengthAdjust="spacingAndGlyphs" textLength="92">Send Request</text><polygon fill="#6959DB" points="638 460.082 648 464.082 638 468.082 642 464.082" style="stroke:#6959db;stroke-width:1"/><line style="stroke:#6959db;stroke-width:1" x1="76" x2="644" y1="464.082" y2="464.082"/><text x="83" y="459.65" fill="#000" font-family="sans-serif" font-size="13" lengthAdjust="spacingAndGlyphs" textLength="280">Send Request Authenticated with PushToken</text><polygon fill="#6959DB" points="766.5 489.393 776.5 493.393 766.5 497.393 770.5 493.393" style="stroke:#6959db;stroke-width:1"/><line style="stroke:#6959db;stroke-width:1" x1="650" x2="772.5" y1="493.393" y2="493.393"/><text x="657" y="488.961" fill="#000" font-family="sans-serif" font-size="13" lengthAdjust="spacingAndGlyphs" textLength="68">Notify App</text><polygon fill="#6959DB" points="1105.5 518.703 1115.5 522.703 1105.5 526.703 1109.5 522.703" style="stroke:#6959db;stroke-width:1"/><line style="stroke:#6959db;stroke-width:1" x1="778.5" x2="1111.5" y1="522.703" y2="522.703"/><text x="785.5" y="518.271" fill="#000" font-family="sans-serif" font-size="13" lengthAdjust="spacingAndGlyphs" textLength="120">Authorize Request?</text><polygon fill="#6959DB" points="789.5 548.014 779.5 552.014 789.5 556.014 785.5 552.014" style="stroke:#6959db;stroke-width:1"/><line style="stroke:#6959db;stroke-width:1" x1="783.5" x2="1116.5" y1="552.014" y2="552.014"/><text x="795.5" y="547.582" fill="#000" font-family="sans-serif" font-size="13" lengthAdjust="spacingAndGlyphs" textLength="96">Allow/Disallow</text><polygon fill="#6959DB" points="517 577.324 507 581.324 517 585.324 513 581.324" style="stroke:#6959db;stroke-width:1"/><line style="stroke:#6959db;stroke-width:1" x1="511" x2="777.5" y1="581.324" y2="581.324"/><text x="523" y="576.893" fill="#000" font-family="sans-serif" font-size="13" lengthAdjust="spacingAndGlyphs" textLength="91">Send response</text><polygon fill="#6959DB" points="87 606.635 77 610.635 87 614.635 83 610.635" style="stroke:#6959db;stroke-width:1"/><line style="stroke:#6959db;stroke-width:1" x1="81" x2="505" y1="610.635" y2="610.635"/><text x="93" y="606.203" fill="#000" font-family="sans-serif" font-size="13" lengthAdjust="spacingAndGlyphs" textLength="111">Receive Response</text></g></svg>