<svg xmlns="http://www.w3.org/2000/svg" xmlns:xlink="http://www.w3.org/1999/xlink" width="541" height="384" contentScriptType="application/ecmascript" contentStyleType="text/css" style="width:541px;height:384px" preserveAspectRatio="none" version="1.1" viewBox="0 0 541 384" zoomAndPan="magnify"><defs><filter id="f10s1vf1odj2c2" width="300%" height="300%" x="-1" y="-1"><feGaussianBlur result="blurOut" stdDeviation="2"/><feColorMatrix in="blurOut" result="blurOut2" type="matrix" values="0 0 0 0 0 0 0 0 0 0 0 0 0 0 0 0 0 0 .4 0"/><feOffset dx="4" dy="4" in="blurOut2" result="blurOut3"/><feBlend in="SourceGraphic" in2="blurOut3" mode="normal"/></filter></defs><g><text x="157.75" y="23.535" fill="#000" font-family="sans-serif" font-size="14" font-weight="bold" lengthAdjust="spacingAndGlyphs" textLength="228">Uport Selective Disclosure Flow</text><line style="stroke:#878787;stroke-width:1;stroke-dasharray:5,5" x1="61" x2="61" y1="116.977" y2="296.529"/><line style="stroke:#878787;stroke-width:1;stroke-dasharray:5,5" x1="274.5" x2="274.5" y1="116.977" y2="296.529"/><line style="stroke:#878787;stroke-width:1;stroke-dasharray:5,5" x1="509.5" x2="509.5" y1="116.977" y2="296.529"/><rect style="stroke:#6959db;stroke-width:1.5" width="82" height="30.488" x="18" y="81.488" fill="#FFF" filter="url(#f10s1vf1odj2c2)" rx="5" ry="5"/><text x="25" y="102.023" fill="#000" font-family="sans-serif" font-size="14" lengthAdjust="spacingAndGlyphs" textLength="68">ClientApp</text><rect style="stroke:#6959db;stroke-width:1.5" width="82" height="30.488" x="18" y="295.529" fill="#FFF" filter="url(#f10s1vf1odj2c2)" rx="5" ry="5"/><text x="25" y="316.065" fill="#000" font-family="sans-serif" font-size="14" lengthAdjust="spacingAndGlyphs" textLength="68">ClientApp</text><rect style="stroke:#6959db;stroke-width:1.5" width="99" height="30.488" x="223.5" y="81.488" fill="#FFF" filter="url(#f10s1vf1odj2c2)" rx="5" ry="5"/><text x="230.5" y="102.023" fill="#000" font-family="sans-serif" font-size="14" lengthAdjust="spacingAndGlyphs" textLength="85">UportMobile</text><rect style="stroke:#6959db;stroke-width:1.5" width="99" height="30.488" x="223.5" y="295.529" fill="#FFF" filter="url(#f10s1vf1odj2c2)" rx="5" ry="5"/><text x="230.5" y="316.065" fill="#000" font-family="sans-serif" font-size="14" lengthAdjust="spacingAndGlyphs" textLength="85">UportMobile</text><text x="484.5" y="114.023" fill="#000" font-family="sans-serif" font-size="14" lengthAdjust="spacingAndGlyphs" textLength="45">Owner</text><ellipse cx="510" cy="43.488" fill="#FFF" filter="url(#f10s1vf1odj2c2)" rx="8" ry="8" style="stroke:#6959db;stroke-width:2"/><path fill="#FFF" d="M510,51.4883 L510,78.4883 M497,59.4883 L523,59.4883 M510,78.4883 L497,93.4883 M510,78.4883 L523,93.4883" filter="url(#f10s1vf1odj2c2)" style="stroke:#6959db;stroke-width:2"/><text x="484.5" y="309.065" fill="#000" font-family="sans-serif" font-size="14" lengthAdjust="spacingAndGlyphs" textLength="45">Owner</text><ellipse cx="510" cy="322.018" fill="#FFF" filter="url(#f10s1vf1odj2c2)" rx="8" ry="8" style="stroke:#6959db;stroke-width:2"/><path fill="#FFF" d="M510,330.0176 L510,357.0176 M497,338.0176 L523,338.0176 M510,357.0176 L497,372.0176 M510,357.0176 L523,372.0176" filter="url(#f10s1vf1odj2c2)" style="stroke:#6959db;stroke-width:2"/><polygon fill="#6959DB" points="263 143.977 273 147.977 263 151.977 267 147.977" style="stroke:#6959db;stroke-width:1"/><line style="stroke:#6959db;stroke-width:1" x1="61" x2="269" y1="147.977" y2="147.977"/><text x="68" y="143.545" fill="#000" font-family="sans-serif" font-size="13" lengthAdjust="spacingAndGlyphs" textLength="180">Selective Disclosure Request</text><polygon fill="#6959DB" points="498 173.287 508 177.287 498 181.287 502 177.287" style="stroke:#6959db;stroke-width:1"/><line style="stroke:#6959db;stroke-width:1" x1="275" x2="504" y1="177.287" y2="177.287"/><text x="282" y="172.856" fill="#000" font-family="sans-serif" font-size="13" lengthAdjust="spacingAndGlyphs" textLength="120">Authorize Request?</text><polygon fill="#6959DB" points="286 202.598 276 206.598 286 210.598 282 206.598" style="stroke:#6959db;stroke-width:1"/><line style="stroke:#6959db;stroke-width:1" x1="280" x2="509" y1="206.598" y2="206.598"/><text x="292" y="202.166" fill="#000" font-family="sans-serif" font-size="13" lengthAdjust="spacingAndGlyphs" textLength="96">Allow/Disallow</text><line style="stroke:#6959db;stroke-width:1" x1="275" x2="317" y1="236.219" y2="236.219"/><line style="stroke:#6959db;stroke-width:1" x1="317" x2="317" y1="236.219" y2="249.219"/><line style="stroke:#6959db;stroke-width:1" x1="276" x2="317" y1="249.219" y2="249.219"/><polygon fill="#6959DB" points="286 245.219 276 249.219 286 253.219 282 249.219" style="stroke:#6959db;stroke-width:1"/><text x="282" y="231.477" fill="#000" font-family="sans-serif" font-size="13" lengthAdjust="spacingAndGlyphs" textLength="221">Sign Selective Disclosure Response</text><polygon fill="#6959DB" points="72 274.219 62 278.219 72 282.219 68 278.219" style="stroke:#6959db;stroke-width:1"/><line style="stroke:#6959db;stroke-width:1" x1="66" x2="274" y1="278.219" y2="278.219"/><text x="78" y="273.787" fill="#000" font-family="sans-serif" font-size="13" lengthAdjust="spacingAndGlyphs" textLength="190">Selective Disclosure Response</text></g></svg>