<svg xmlns="http://www.w3.org/2000/svg" xmlns:xlink="http://www.w3.org/1999/xlink" width="714" height="501" contentScriptType="application/ecmascript" contentStyleType="text/css" style="width:714px;height:501px" preserveAspectRatio="none" version="1.1" viewBox="0 0 714 501" zoomAndPan="magnify"><defs><filter id="f1f8sm6e5jxntr" width="300%" height="300%" x="-1" y="-1"><feGaussianBlur result="blurOut" stdDeviation="2"/><feColorMatrix in="blurOut" result="blurOut2" type="matrix" values="0 0 0 0 0 0 0 0 0 0 0 0 0 0 0 0 0 0 .4 0"/><feOffset dx="4" dy="4" in="blurOut2" result="blurOut3"/><feBlend in="SourceGraphic" in2="blurOut3" mode="normal"/></filter></defs><g><text x="237" y="23.535" fill="#000" font-family="sans-serif" font-size="14" font-weight="bold" lengthAdjust="spacingAndGlyphs" textLength="242">Uport Ethereum Transaction Flow</text><line style="stroke:#878787;stroke-width:1;stroke-dasharray:5,5" x1="61" x2="61" y1="116.977" y2="413.772"/><line style="stroke:#878787;stroke-width:1;stroke-dasharray:5,5" x1="275.5" x2="275.5" y1="116.977" y2="413.772"/><line style="stroke:#878787;stroke-width:1;stroke-dasharray:5,5" x1="419.5" x2="419.5" y1="116.977" y2="413.772"/><line style="stroke:#878787;stroke-width:1;stroke-dasharray:5,5" x1="523.5" x2="523.5" y1="116.977" y2="413.772"/><line style="stroke:#878787;stroke-width:1;stroke-dasharray:5,5" x1="672" x2="672" y1="116.977" y2="413.772"/><rect style="stroke:#6959db;stroke-width:1.5" width="82" height="30.488" x="18" y="81.488" fill="#FFF" filter="url(#f1f8sm6e5jxntr)" rx="5" ry="5"/><text x="25" y="102.023" fill="#000" font-family="sans-serif" font-size="14" lengthAdjust="spacingAndGlyphs" textLength="68">ClientApp</text><rect style="stroke:#6959db;stroke-width:1.5" width="82" height="30.488" x="18" y="412.772" fill="#FFF" filter="url(#f1f8sm6e5jxntr)" rx="5" ry="5"/><text x="25" y="433.307" fill="#000" font-family="sans-serif" font-size="14" lengthAdjust="spacingAndGlyphs" textLength="68">ClientApp</text><rect style="stroke:#6959db;stroke-width:1.5" width="99" height="30.488" x="224.5" y="81.488" fill="#FFF" filter="url(#f1f8sm6e5jxntr)" rx="5" ry="5"/><text x="231.5" y="102.023" fill="#000" font-family="sans-serif" font-size="14" lengthAdjust="spacingAndGlyphs" textLength="85">UportMobile</text><rect style="stroke:#6959db;stroke-width:1.5" width="99" height="30.488" x="224.5" y="412.772" fill="#FFF" filter="url(#f1f8sm6e5jxntr)" rx="5" ry="5"/><text x="231.5" y="433.307" fill="#000" font-family="sans-serif" font-size="14" lengthAdjust="spacingAndGlyphs" textLength="85">UportMobile</text><text x="394.5" y="114.023" fill="#000" font-family="sans-serif" font-size="14" lengthAdjust="spacingAndGlyphs" textLength="45">Owner</text><ellipse cx="420" cy="43.488" fill="#FFF" filter="url(#f1f8sm6e5jxntr)" rx="8" ry="8" style="stroke:#6959db;stroke-width:2"/><path fill="#FFF" d="M420,51.4883 L420,78.4883 M407,59.4883 L433,59.4883 M420,78.4883 L407,93.4883 M420,78.4883 L433,93.4883" filter="url(#f1f8sm6e5jxntr)" style="stroke:#6959db;stroke-width:2"/><text x="394.5" y="426.307" fill="#000" font-family="sans-serif" font-size="14" lengthAdjust="spacingAndGlyphs" textLength="45">Owner</text><ellipse cx="420" cy="439.26" fill="#FFF" filter="url(#f1f8sm6e5jxntr)" rx="8" ry="8" style="stroke:#6959db;stroke-width:2"/><path fill="#FFF" d="M420,447.2598 L420,474.2598 M407,455.2598 L433,455.2598 M420,474.2598 L407,489.2598 M420,474.2598 L433,489.2598" filter="url(#f1f8sm6e5jxntr)" style="stroke:#6959db;stroke-width:2"/><rect style="stroke:#6959db;stroke-width:1.5" width="113" height="30.488" x="465.5" y="81.488" fill="#FFF" filter="url(#f1f8sm6e5jxntr)" rx="5" ry="5"/><text x="472.5" y="102.023" fill="#000" font-family="sans-serif" font-size="14" lengthAdjust="spacingAndGlyphs" textLength="99">FuelingService</text><rect style="stroke:#6959db;stroke-width:1.5" width="113" height="30.488" x="465.5" y="412.772" fill="#FFF" filter="url(#f1f8sm6e5jxntr)" rx="5" ry="5"/><text x="472.5" y="433.307" fill="#000" font-family="sans-serif" font-size="14" lengthAdjust="spacingAndGlyphs" textLength="99">FuelingService</text><text x="636" y="114.023" fill="#000" font-family="sans-serif" font-size="14" lengthAdjust="spacingAndGlyphs" textLength="66">Ethereum</text><path fill="#FEFECE" d="M654,64.4883 C654,54.4883 672,54.4883 672,54.4883 C672,54.4883 690,54.4883 690,64.4883 L690,90.4883 C690,100.4883 672,100.4883 672,100.4883 C672,100.4883 654,100.4883 654,90.4883 L654,64.4883" filter="url(#f1f8sm6e5jxntr)" style="stroke:#000;stroke-width:1.5"/><path fill="none" d="M654,64.4883 C654,74.4883 672,74.4883 672,74.4883 C672,74.4883 690,74.4883 690,64.4883" style="stroke:#000;stroke-width:1.5"/><text x="636" y="426.307" fill="#000" font-family="sans-serif" font-size="14" lengthAdjust="spacingAndGlyphs" textLength="66">Ethereum</text><path fill="#FEFECE" d="M654,439.2598 C654,429.2598 672,429.2598 672,429.2598 C672,429.2598 690,429.2598 690,439.2598 L690,465.2598 C690,475.2598 672,475.2598 672,475.2598 C672,475.2598 654,475.2598 654,465.2598 L654,439.2598" filter="url(#f1f8sm6e5jxntr)" style="stroke:#000;stroke-width:1.5"/><path fill="none" d="M654,439.2598 C654,449.2598 672,449.2598 672,449.2598 C672,449.2598 690,449.2598 690,439.2598" style="stroke:#000;stroke-width:1.5"/><polygon fill="#6959DB" points="264 143.977 274 147.977 264 151.977 268 147.977" style="stroke:#6959db;stroke-width:1"/><line style="stroke:#6959db;stroke-width:1" x1="61" x2="270" y1="147.977" y2="147.977"/><text x="68" y="143.545" fill="#000" font-family="sans-serif" font-size="13" lengthAdjust="spacingAndGlyphs" textLength="191">Ethereum Transaction Request</text><polygon fill="#6959DB" points="408 173.287 418 177.287 408 181.287 412 177.287" style="stroke:#6959db;stroke-width:1"/><line style="stroke:#6959db;stroke-width:1" x1="276" x2="414" y1="177.287" y2="177.287"/><text x="283" y="172.856" fill="#000" font-family="sans-serif" font-size="13" lengthAdjust="spacingAndGlyphs" textLength="120">Authorize Request?</text><polygon fill="#6959DB" points="287 202.598 277 206.598 287 210.598 283 206.598" style="stroke:#6959db;stroke-width:1"/><line style="stroke:#6959db;stroke-width:1" x1="281" x2="419" y1="206.598" y2="206.598"/><text x="293" y="202.166" fill="#000" font-family="sans-serif" font-size="13" lengthAdjust="spacingAndGlyphs" textLength="96">Allow/Disallow</text><line style="stroke:#6959db;stroke-width:1" x1="276" x2="318" y1="236.219" y2="236.219"/><line style="stroke:#6959db;stroke-width:1" x1="318" x2="318" y1="236.219" y2="249.219"/><line style="stroke:#6959db;stroke-width:1" x1="277" x2="318" y1="249.219" y2="249.219"/><polygon fill="#6959DB" points="287 245.219 277 249.219 287 253.219 283 249.219" style="stroke:#6959db;stroke-width:1"/><text x="283" y="231.477" fill="#000" font-family="sans-serif" font-size="13" lengthAdjust="spacingAndGlyphs" textLength="105">Sign Transaction</text><polygon fill="#6959DB" points="512 274.219 522 278.219 512 282.219 516 278.219" style="stroke:#6959db;stroke-width:1"/><line style="stroke:#6959db;stroke-width:1" x1="276" x2="518" y1="278.219" y2="278.219"/><text x="283" y="273.787" fill="#000" font-family="sans-serif" font-size="13" lengthAdjust="spacingAndGlyphs" textLength="173">Request gas for transaction</text><polygon fill="#6959DB" points="660 303.529 670 307.529 660 311.529 664 307.529" style="stroke:#6959db;stroke-width:1"/><line style="stroke:#6959db;stroke-width:1" x1="524" x2="666" y1="307.529" y2="307.529"/><text x="531" y="303.098" fill="#000" font-family="sans-serif" font-size="13" lengthAdjust="spacingAndGlyphs" textLength="124">Fueling Transaction</text><polygon fill="#6959DB" points="660 332.84 670 336.84 660 340.84 664 336.84" style="stroke:#6959db;stroke-width:1"/><line style="stroke:#6959db;stroke-width:1" x1="276" x2="666" y1="336.84" y2="336.84"/><text x="283" y="332.408" fill="#000" font-family="sans-serif" font-size="13" lengthAdjust="spacingAndGlyphs" textLength="120">Signed Transaction</text><polygon fill="#6959DB" points="72 362.15 62 366.15 72 370.15 68 366.15" style="stroke:#6959db;stroke-width:1"/><line style="stroke:#6959db;stroke-width:1" x1="66" x2="275" y1="366.15" y2="366.15"/><text x="78" y="361.719" fill="#000" font-family="sans-serif" font-size="13" lengthAdjust="spacingAndGlyphs" textLength="110">Transaction Hash</text><polygon fill="#6959DB" points="72 391.461 62 395.461 72 399.461 68 395.461" style="stroke:#6959db;stroke-width:1"/><polygon fill="#6959DB" points="660 391.461 670 395.461 660 399.461 664 395.461" style="stroke:#6959db;stroke-width:1"/><line style="stroke:#6959db;stroke-width:1" x1="66" x2="666" y1="395.461" y2="395.461"/><text x="78" y="391.029" fill="#000" font-family="sans-serif" font-size="13" lengthAdjust="spacingAndGlyphs" textLength="161">Transaction Confirmation</text></g></svg>