<svg xmlns="http://www.w3.org/2000/svg" xmlns:xlink="http://www.w3.org/1999/xlink" width="352" height="341" contentScriptType="application/ecmascript" contentStyleType="text/css" style="width:352px;height:341px" preserveAspectRatio="none" version="1.1" viewBox="0 0 352 341" zoomAndPan="magnify"><defs><filter id="f1f4lgq7dcgro5" width="300%" height="300%" x="-1" y="-1"><feGaussianBlur result="blurOut" stdDeviation="2"/><feColorMatrix in="blurOut" result="blurOut2" type="matrix" values="0 0 0 0 0 0 0 0 0 0 0 0 0 0 0 0 0 0 .4 0"/><feOffset dx="4" dy="4" in="blurOut2" result="blurOut3"/><feBlend in="SourceGraphic" in2="blurOut3" mode="normal"/></filter></defs><g><text x="63.5" y="23.535" fill="#000" font-family="sans-serif" font-size="14" font-weight="bold" lengthAdjust="spacingAndGlyphs" textLength="227">Uport Send Verified Claim Flow</text><line style="stroke:#878787;stroke-width:1;stroke-dasharray:5,5" x1="47" x2="47" y1="116.977" y2="254.219"/><line style="stroke:#878787;stroke-width:1;stroke-dasharray:5,5" x1="187" x2="187" y1="116.977" y2="254.219"/><line style="stroke:#878787;stroke-width:1;stroke-dasharray:5,5" x1="320" x2="320" y1="116.977" y2="254.219"/><rect style="stroke:#6959db;stroke-width:1.5" width="55" height="30.488" x="18" y="81.488" fill="#FFF" filter="url(#f1f4lgq7dcgro5)" rx="5" ry="5"/><text x="25" y="102.023" fill="#000" font-family="sans-serif" font-size="14" lengthAdjust="spacingAndGlyphs" textLength="41">Issuer</text><rect style="stroke:#6959db;stroke-width:1.5" width="55" height="30.488" x="18" y="253.219" fill="#FFF" filter="url(#f1f4lgq7dcgro5)" rx="5" ry="5"/><text x="25" y="273.754" fill="#000" font-family="sans-serif" font-size="14" lengthAdjust="spacingAndGlyphs" textLength="41">Issuer</text><rect style="stroke:#6959db;stroke-width:1.5" width="99" height="30.488" x="136" y="81.488" fill="#FFF" filter="url(#f1f4lgq7dcgro5)" rx="5" ry="5"/><text x="143" y="102.023" fill="#000" font-family="sans-serif" font-size="14" lengthAdjust="spacingAndGlyphs" textLength="85">UportMobile</text><rect style="stroke:#6959db;stroke-width:1.5" width="99" height="30.488" x="136" y="253.219" fill="#FFF" filter="url(#f1f4lgq7dcgro5)" rx="5" ry="5"/><text x="143" y="273.754" fill="#000" font-family="sans-serif" font-size="14" lengthAdjust="spacingAndGlyphs" textLength="85">UportMobile</text><text x="295" y="114.023" fill="#000" font-family="sans-serif" font-size="14" lengthAdjust="spacingAndGlyphs" textLength="45">Owner</text><ellipse cx="320.5" cy="43.488" fill="#FFF" filter="url(#f1f4lgq7dcgro5)" rx="8" ry="8" style="stroke:#6959db;stroke-width:2"/><path fill="#FFF" d="M320.5,51.4883 L320.5,78.4883 M307.5,59.4883 L333.5,59.4883 M320.5,78.4883 L307.5,93.4883 M320.5,78.4883 L333.5,93.4883" filter="url(#f1f4lgq7dcgro5)" style="stroke:#6959db;stroke-width:2"/><text x="295" y="266.754" fill="#000" font-family="sans-serif" font-size="14" lengthAdjust="spacingAndGlyphs" textLength="45">Owner</text><ellipse cx="320.5" cy="279.707" fill="#FFF" filter="url(#f1f4lgq7dcgro5)" rx="8" ry="8" style="stroke:#6959db;stroke-width:2"/><path fill="#FFF" d="M320.5,287.707 L320.5,314.707 M307.5,295.707 L333.5,295.707 M320.5,314.707 L307.5,329.707 M320.5,314.707 L333.5,329.707" filter="url(#f1f4lgq7dcgro5)" style="stroke:#6959db;stroke-width:2"/><polygon fill="#6959DB" points="58.5 143.977 48.5 147.977 58.5 151.977 54.5 147.977" style="stroke:#6959db;stroke-width:1"/><polygon fill="#6959DB" points="308.5 143.977 318.5 147.977 308.5 151.977 312.5 147.977" style="stroke:#6959db;stroke-width:1"/><line style="stroke:#6959db;stroke-width:1" x1="52.5" x2="314.5" y1="147.977" y2="147.977"/><text x="64.5" y="143.545" fill="#000" font-family="sans-serif" font-size="13" lengthAdjust="spacingAndGlyphs" textLength="217">On or Off-line Identity verification</text><polygon fill="#6959DB" points="175.5 173.287 185.5 177.287 175.5 181.287 179.5 177.287" style="stroke:#6959db;stroke-width:1"/><line style="stroke:#6959db;stroke-width:1" x1="47.5" x2="181.5" y1="177.287" y2="177.287"/><text x="54.5" y="172.856" fill="#000" font-family="sans-serif" font-size="13" lengthAdjust="spacingAndGlyphs" textLength="88">Verified Claim</text><polygon fill="#6959DB" points="308.5 202.598 318.5 206.598 308.5 210.598 312.5 206.598" style="stroke:#6959db;stroke-width:1"/><line style="stroke:#6959db;stroke-width:1" x1="187.5" x2="314.5" y1="206.598" y2="206.598"/><text x="194.5" y="202.166" fill="#000" font-family="sans-serif" font-size="13" lengthAdjust="spacingAndGlyphs" textLength="109">Show Verification</text><polygon fill="#6959DB" points="58.5 231.908 48.5 235.908 58.5 239.908 54.5 235.908" style="stroke:#6959db;stroke-width:1"/><line style="stroke:#6959db;stroke-width:1" x1="52.5" x2="186.5" y1="235.908" y2="235.908"/><text x="64.5" y="231.477" fill="#000" font-family="sans-serif" font-size="13" lengthAdjust="spacingAndGlyphs" textLength="116">Acknowledgement</text></g></svg>