<svg xmlns="http://www.w3.org/2000/svg" xmlns:xlink="http://www.w3.org/1999/xlink" width="557" height="429" contentScriptType="application/ecmascript" contentStyleType="text/css" style="width:557px;height:429px" preserveAspectRatio="none" version="1.1" viewBox="0 0 557 429" zoomAndPan="magnify"><defs><filter id="f3zv6uy537rqt" width="300%" height="300%" x="-1" y="-1"><feGaussianBlur result="blurOut" stdDeviation="2"/><feColorMatrix in="blurOut" result="blurOut2" type="matrix" values="0 0 0 0 0 0 0 0 0 0 0 0 0 0 0 0 0 0 .4 0"/><feOffset dx="4" dy="4" in="blurOut2" result="blurOut3"/><feBlend in="SourceGraphic" in2="blurOut3" mode="normal"/></filter></defs><g><text x="80.5" y="23.535" fill="#000" font-family="sans-serif" font-size="14" font-weight="bold" lengthAdjust="spacingAndGlyphs" textLength="398">Desktop Web Server App to Uport Mobile Request Flow</text><line style="stroke:#878787;stroke-width:1;stroke-dasharray:5,5" x1="75" x2="75" y1="116.977" y2="342.15"/><line style="stroke:#878787;stroke-width:1;stroke-dasharray:5,5" x1="239" x2="239" y1="116.977" y2="342.15"/><line style="stroke:#878787;stroke-width:1;stroke-dasharray:5,5" x1="381" x2="381" y1="116.977" y2="342.15"/><line style="stroke:#878787;stroke-width:1;stroke-dasharray:5,5" x1="525" x2="525" y1="116.977" y2="342.15"/><rect style="stroke:#6959db;stroke-width:1.5" width="111" height="30.488" x="18" y="81.488" fill="#FFF" filter="url(#f3zv6uy537rqt)" rx="5" ry="5"/><text x="25" y="102.023" fill="#000" font-family="sans-serif" font-size="14" lengthAdjust="spacingAndGlyphs" textLength="97">ClientBackEnd</text><rect style="stroke:#6959db;stroke-width:1.5" width="111" height="30.488" x="18" y="341.15" fill="#FFF" filter="url(#f3zv6uy537rqt)" rx="5" ry="5"/><text x="25" y="361.685" fill="#000" font-family="sans-serif" font-size="14" lengthAdjust="spacingAndGlyphs" textLength="97">ClientBackEnd</text><rect style="stroke:#6959db;stroke-width:1.5" width="117" height="30.488" x="179" y="81.488" fill="#FFF" filter="url(#f3zv6uy537rqt)" rx="5" ry="5"/><text x="186" y="102.023" fill="#000" font-family="sans-serif" font-size="14" lengthAdjust="spacingAndGlyphs" textLength="103">ClientFrontEnd</text><rect style="stroke:#6959db;stroke-width:1.5" width="117" height="30.488" x="179" y="341.15" fill="#FFF" filter="url(#f3zv6uy537rqt)" rx="5" ry="5"/><text x="186" y="361.685" fill="#000" font-family="sans-serif" font-size="14" lengthAdjust="spacingAndGlyphs" textLength="103">ClientFrontEnd</text><rect style="stroke:#6959db;stroke-width:1.5" width="99" height="30.488" x="330" y="81.488" fill="#FFF" filter="url(#f3zv6uy537rqt)" rx="5" ry="5"/><text x="337" y="102.023" fill="#000" font-family="sans-serif" font-size="14" lengthAdjust="spacingAndGlyphs" textLength="85">UportMobile</text><rect style="stroke:#6959db;stroke-width:1.5" width="99" height="30.488" x="330" y="341.15" fill="#FFF" filter="url(#f3zv6uy537rqt)" rx="5" ry="5"/><text x="337" y="361.685" fill="#000" font-family="sans-serif" font-size="14" lengthAdjust="spacingAndGlyphs" textLength="85">UportMobile</text><text x="500" y="114.023" fill="#000" font-family="sans-serif" font-size="14" lengthAdjust="spacingAndGlyphs" textLength="45">Owner</text><ellipse cx="525.5" cy="43.488" fill="#FFF" filter="url(#f3zv6uy537rqt)" rx="8" ry="8" style="stroke:#6959db;stroke-width:2"/><path fill="#FFF" d="M525.5,51.4883 L525.5,78.4883 M512.5,59.4883 L538.5,59.4883 M525.5,78.4883 L512.5,93.4883 M525.5,78.4883 L538.5,93.4883" filter="url(#f3zv6uy537rqt)" style="stroke:#6959db;stroke-width:2"/><text x="500" y="354.685" fill="#000" font-family="sans-serif" font-size="14" lengthAdjust="spacingAndGlyphs" textLength="45">Owner</text><ellipse cx="525.5" cy="367.639" fill="#FFF" filter="url(#f3zv6uy537rqt)" rx="8" ry="8" style="stroke:#6959db;stroke-width:2"/><path fill="#FFF" d="M525.5,375.6387 L525.5,402.6387 M512.5,383.6387 L538.5,383.6387 M525.5,402.6387 L512.5,417.6387 M525.5,402.6387 L538.5,417.6387" filter="url(#f3zv6uy537rqt)" style="stroke:#6959db;stroke-width:2"/><polygon fill="#6959DB" points="227.5 143.977 237.5 147.977 227.5 151.977 231.5 147.977" style="stroke:#6959db;stroke-width:1"/><line style="stroke:#6959db;stroke-width:1" x1="75.5" x2="233.5" y1="147.977" y2="147.977"/><text x="82.5" y="143.545" fill="#000" font-family="sans-serif" font-size="13" lengthAdjust="spacingAndGlyphs" textLength="140">Create Signed Request</text><polygon fill="#6959DB" points="513.5 173.287 523.5 177.287 513.5 181.287 517.5 177.287" style="stroke:#6959db;stroke-width:1"/><line style="stroke:#6959db;stroke-width:1" x1="239.5" x2="519.5" y1="177.287" y2="177.287"/><text x="246.5" y="172.856" fill="#000" font-family="sans-serif" font-size="13" lengthAdjust="spacingAndGlyphs" textLength="211">Show QR code containing request</text><polygon fill="#6959DB" points="392.5 202.598 382.5 206.598 392.5 210.598 388.5 206.598" style="stroke:#6959db;stroke-width:1"/><line style="stroke:#6959db;stroke-width:1" x1="386.5" x2="524.5" y1="206.598" y2="206.598"/><text x="398.5" y="202.166" fill="#000" font-family="sans-serif" font-size="13" lengthAdjust="spacingAndGlyphs" textLength="92">Scans QR code</text><polygon fill="#6959DB" points="513.5 231.908 523.5 235.908 513.5 239.908 517.5 235.908" style="stroke:#6959db;stroke-width:1"/><line style="stroke:#6959db;stroke-width:1" x1="381.5" x2="519.5" y1="235.908" y2="235.908"/><text x="388.5" y="231.477" fill="#000" font-family="sans-serif" font-size="13" lengthAdjust="spacingAndGlyphs" textLength="120">Authorize Request?</text><polygon fill="#6959DB" points="392.5 261.219 382.5 265.219 392.5 269.219 388.5 265.219" style="stroke:#6959db;stroke-width:1"/><line style="stroke:#6959db;stroke-width:1" x1="386.5" x2="524.5" y1="265.219" y2="265.219"/><text x="398.5" y="260.787" fill="#000" font-family="sans-serif" font-size="13" lengthAdjust="spacingAndGlyphs" textLength="96">Allow/Disallow</text><polygon fill="#6959DB" points="86.5 290.529 76.5 294.529 86.5 298.529 82.5 294.529" style="stroke:#6959db;stroke-width:1"/><line style="stroke:#6959db;stroke-width:1" x1="80.5" x2="380.5" y1="294.529" y2="294.529"/><text x="92.5" y="290.098" fill="#000" font-family="sans-serif" font-size="13" lengthAdjust="spacingAndGlyphs" textLength="91">Send response</text><polygon fill="#6959DB" points="227.5 319.84 237.5 323.84 227.5 327.84 231.5 323.84" style="stroke:#6959db;stroke-width:1"/><line style="stroke:#6959db;stroke-width:1" x1="75.5" x2="233.5" y1="323.84" y2="323.84"/><text x="82.5" y="319.408" fill="#000" font-family="sans-serif" font-size="13" lengthAdjust="spacingAndGlyphs" textLength="105">Handle response</text></g></svg>