<svg xmlns="http://www.w3.org/2000/svg" xmlns:xlink="http://www.w3.org/1999/xlink" width="525" height="400" contentScriptType="application/ecmascript" contentStyleType="text/css" style="width:525px;height:400px" preserveAspectRatio="none" version="1.1" viewBox="0 0 525 400" zoomAndPan="magnify"><defs><filter id="f1wbin5uk47u75" width="300%" height="300%" x="-1" y="-1"><feGaussianBlur result="blurOut" stdDeviation="2"/><feColorMatrix in="blurOut" result="blurOut2" type="matrix" values="0 0 0 0 0 0 0 0 0 0 0 0 0 0 0 0 0 0 .4 0"/><feOffset dx="4" dy="4" in="blurOut2" result="blurOut3"/><feBlend in="SourceGraphic" in2="blurOut3" mode="normal"/></filter></defs><g><text x="70.5" y="23.535" fill="#000" font-family="sans-serif" font-size="14" font-weight="bold" lengthAdjust="spacingAndGlyphs" textLength="386">Desktop Browser dApp to Uport Mobile Request Flow</text><line style="stroke:#878787;stroke-width:1;stroke-dasharray:5,5" x1="61" x2="61" y1="116.977" y2="312.84"/><line style="stroke:#878787;stroke-width:1;stroke-dasharray:5,5" x1="201" x2="201" y1="116.977" y2="312.84"/><line style="stroke:#878787;stroke-width:1;stroke-dasharray:5,5" x1="349" x2="349" y1="116.977" y2="312.84"/><line style="stroke:#878787;stroke-width:1;stroke-dasharray:5,5" x1="493" x2="493" y1="116.977" y2="312.84"/><rect style="stroke:#6959db;stroke-width:1.5" width="82" height="30.488" x="18" y="81.488" fill="#FFF" filter="url(#f1wbin5uk47u75)" rx="5" ry="5"/><text x="25" y="102.023" fill="#000" font-family="sans-serif" font-size="14" lengthAdjust="spacingAndGlyphs" textLength="68">ClientApp</text><rect style="stroke:#6959db;stroke-width:1.5" width="82" height="30.488" x="18" y="311.84" fill="#FFF" filter="url(#f1wbin5uk47u75)" rx="5" ry="5"/><text x="25" y="332.375" fill="#000" font-family="sans-serif" font-size="14" lengthAdjust="spacingAndGlyphs" textLength="68">ClientApp</text><rect style="stroke:#6959db;stroke-width:1.5" width="130" height="30.488" x="134" y="81.488" fill="#FFF" filter="url(#f1wbin5uk47u75)" rx="5" ry="5"/><text x="141" y="102.023" fill="#000" font-family="sans-serif" font-size="14" lengthAdjust="spacingAndGlyphs" textLength="116">MessagingServer</text><rect style="stroke:#6959db;stroke-width:1.5" width="130" height="30.488" x="134" y="311.84" fill="#FFF" filter="url(#f1wbin5uk47u75)" rx="5" ry="5"/><text x="141" y="332.375" fill="#000" font-family="sans-serif" font-size="14" lengthAdjust="spacingAndGlyphs" textLength="116">MessagingServer</text><rect style="stroke:#6959db;stroke-width:1.5" width="99" height="30.488" x="298" y="81.488" fill="#FFF" filter="url(#f1wbin5uk47u75)" rx="5" ry="5"/><text x="305" y="102.023" fill="#000" font-family="sans-serif" font-size="14" lengthAdjust="spacingAndGlyphs" textLength="85">UportMobile</text><rect style="stroke:#6959db;stroke-width:1.5" width="99" height="30.488" x="298" y="311.84" fill="#FFF" filter="url(#f1wbin5uk47u75)" rx="5" ry="5"/><text x="305" y="332.375" fill="#000" font-family="sans-serif" font-size="14" lengthAdjust="spacingAndGlyphs" textLength="85">UportMobile</text><text x="468" y="114.023" fill="#000" font-family="sans-serif" font-size="14" lengthAdjust="spacingAndGlyphs" textLength="45">Owner</text><ellipse cx="493.5" cy="43.488" fill="#FFF" filter="url(#f1wbin5uk47u75)" rx="8" ry="8" style="stroke:#6959db;stroke-width:2"/><path fill="#FFF" d="M493.5,51.4883 L493.5,78.4883 M480.5,59.4883 L506.5,59.4883 M493.5,78.4883 L480.5,93.4883 M493.5,78.4883 L506.5,93.4883" filter="url(#f1wbin5uk47u75)" style="stroke:#6959db;stroke-width:2"/><text x="468" y="325.375" fill="#000" font-family="sans-serif" font-size="14" lengthAdjust="spacingAndGlyphs" textLength="45">Owner</text><ellipse cx="493.5" cy="338.328" fill="#FFF" filter="url(#f1wbin5uk47u75)" rx="8" ry="8" style="stroke:#6959db;stroke-width:2"/><path fill="#FFF" d="M493.5,346.3281 L493.5,373.3281 M480.5,354.3281 L506.5,354.3281 M493.5,373.3281 L480.5,388.3281 M493.5,373.3281 L506.5,388.3281" filter="url(#f1wbin5uk47u75)" style="stroke:#6959db;stroke-width:2"/><polygon fill="#6959DB" points="481.5 143.977 491.5 147.977 481.5 151.977 485.5 147.977" style="stroke:#6959db;stroke-width:1"/><line style="stroke:#6959db;stroke-width:1" x1="61" x2="487.5" y1="147.977" y2="147.977"/><text x="68" y="143.545" fill="#000" font-family="sans-serif" font-size="13" lengthAdjust="spacingAndGlyphs" textLength="211">Show QR code containing request</text><polygon fill="#6959DB" points="360.5 173.287 350.5 177.287 360.5 181.287 356.5 177.287" style="stroke:#6959db;stroke-width:1"/><line style="stroke:#6959db;stroke-width:1" x1="354.5" x2="492.5" y1="177.287" y2="177.287"/><text x="366.5" y="172.856" fill="#000" font-family="sans-serif" font-size="13" lengthAdjust="spacingAndGlyphs" textLength="92">Scans QR code</text><polygon fill="#6959DB" points="481.5 202.598 491.5 206.598 481.5 210.598 485.5 206.598" style="stroke:#6959db;stroke-width:1"/><line style="stroke:#6959db;stroke-width:1" x1="349.5" x2="487.5" y1="206.598" y2="206.598"/><text x="356.5" y="202.166" fill="#000" font-family="sans-serif" font-size="13" lengthAdjust="spacingAndGlyphs" textLength="120">Authorize Request?</text><polygon fill="#6959DB" points="360.5 231.908 350.5 235.908 360.5 239.908 356.5 235.908" style="stroke:#6959db;stroke-width:1"/><line style="stroke:#6959db;stroke-width:1" x1="354.5" x2="492.5" y1="235.908" y2="235.908"/><text x="366.5" y="231.477" fill="#000" font-family="sans-serif" font-size="13" lengthAdjust="spacingAndGlyphs" textLength="96">Allow/Disallow</text><polygon fill="#6959DB" points="212 261.219 202 265.219 212 269.219 208 265.219" style="stroke:#6959db;stroke-width:1"/><line style="stroke:#6959db;stroke-width:1" x1="206" x2="348.5" y1="265.219" y2="265.219"/><text x="218" y="260.787" fill="#000" font-family="sans-serif" font-size="13" lengthAdjust="spacingAndGlyphs" textLength="91">Send response</text><polygon fill="#6959DB" points="72 290.529 62 294.529 72 298.529 68 294.529" style="stroke:#6959db;stroke-width:1"/><line style="stroke:#6959db;stroke-width:1" x1="66" x2="200" y1="294.529" y2="294.529"/><text x="78" y="290.098" fill="#000" font-family="sans-serif" font-size="13" lengthAdjust="spacingAndGlyphs" textLength="111">Receive Response</text></g></svg>