<svg xmlns="http://www.w3.org/2000/svg" xmlns:xlink="http://www.w3.org/1999/xlink" width="548" height="341" contentScriptType="application/ecmascript" contentStyleType="text/css" style="width:548px;height:341px" preserveAspectRatio="none" version="1.1" viewBox="0 0 548 341" zoomAndPan="magnify"><defs><filter id="f1r09q5yazfeta" width="300%" height="300%" x="-1" y="-1"><feGaussianBlur result="blurOut" stdDeviation="2"/><feColorMatrix in="blurOut" result="blurOut2" type="matrix" values="0 0 0 0 0 0 0 0 0 0 0 0 0 0 0 0 0 0 .4 0"/><feOffset dx="4" dy="4" in="blurOut2" result="blurOut3"/><feBlend in="SourceGraphic" in2="blurOut3" mode="normal"/></filter></defs><g><text x="82.25" y="23.535" fill="#000" font-family="sans-serif" font-size="14" font-weight="bold" lengthAdjust="spacingAndGlyphs" textLength="386">Mobile App or Browser to Uport Mobile Request Flow</text><line style="stroke:#878787;stroke-width:1;stroke-dasharray:5,5" x1="61" x2="61" y1="116.977" y2="254.219"/><line style="stroke:#878787;stroke-width:1;stroke-dasharray:5,5" x1="372.5" x2="372.5" y1="116.977" y2="254.219"/><line style="stroke:#878787;stroke-width:1;stroke-dasharray:5,5" x1="516.5" x2="516.5" y1="116.977" y2="254.219"/><rect style="stroke:#6959db;stroke-width:1.5" width="82" height="30.488" x="18" y="81.488" fill="#FFF" filter="url(#f1r09q5yazfeta)" rx="5" ry="5"/><text x="25" y="102.023" fill="#000" font-family="sans-serif" font-size="14" lengthAdjust="spacingAndGlyphs" textLength="68">ClientApp</text><rect style="stroke:#6959db;stroke-width:1.5" width="82" height="30.488" x="18" y="253.219" fill="#FFF" filter="url(#f1r09q5yazfeta)" rx="5" ry="5"/><text x="25" y="273.754" fill="#000" font-family="sans-serif" font-size="14" lengthAdjust="spacingAndGlyphs" textLength="68">ClientApp</text><rect style="stroke:#6959db;stroke-width:1.5" width="99" height="30.488" x="321.5" y="81.488" fill="#FFF" filter="url(#f1r09q5yazfeta)" rx="5" ry="5"/><text x="328.5" y="102.023" fill="#000" font-family="sans-serif" font-size="14" lengthAdjust="spacingAndGlyphs" textLength="85">UportMobile</text><rect style="stroke:#6959db;stroke-width:1.5" width="99" height="30.488" x="321.5" y="253.219" fill="#FFF" filter="url(#f1r09q5yazfeta)" rx="5" ry="5"/><text x="328.5" y="273.754" fill="#000" font-family="sans-serif" font-size="14" lengthAdjust="spacingAndGlyphs" textLength="85">UportMobile</text><text x="491.5" y="114.023" fill="#000" font-family="sans-serif" font-size="14" lengthAdjust="spacingAndGlyphs" textLength="45">Owner</text><ellipse cx="517" cy="43.488" fill="#FFF" filter="url(#f1r09q5yazfeta)" rx="8" ry="8" style="stroke:#6959db;stroke-width:2"/><path fill="#FFF" d="M517,51.4883 L517,78.4883 M504,59.4883 L530,59.4883 M517,78.4883 L504,93.4883 M517,78.4883 L530,93.4883" filter="url(#f1r09q5yazfeta)" style="stroke:#6959db;stroke-width:2"/><text x="491.5" y="266.754" fill="#000" font-family="sans-serif" font-size="14" lengthAdjust="spacingAndGlyphs" textLength="45">Owner</text><ellipse cx="517" cy="279.707" fill="#FFF" filter="url(#f1r09q5yazfeta)" rx="8" ry="8" style="stroke:#6959db;stroke-width:2"/><path fill="#FFF" d="M517,287.707 L517,314.707 M504,295.707 L530,295.707 M517,314.707 L504,329.707 M517,314.707 L530,329.707" filter="url(#f1r09q5yazfeta)" style="stroke:#6959db;stroke-width:2"/><polygon fill="#6959DB" points="361 143.977 371 147.977 361 151.977 365 147.977" style="stroke:#6959db;stroke-width:1"/><line style="stroke:#6959db;stroke-width:1" x1="61" x2="367" y1="147.977" y2="147.977"/><text x="68" y="143.545" fill="#000" font-family="sans-serif" font-size="13" lengthAdjust="spacingAndGlyphs" textLength="183">Open URL containing request</text><polygon fill="#6959DB" points="505 173.287 515 177.287 505 181.287 509 177.287" style="stroke:#6959db;stroke-width:1"/><line style="stroke:#6959db;stroke-width:1" x1="373" x2="511" y1="177.287" y2="177.287"/><text x="380" y="172.856" fill="#000" font-family="sans-serif" font-size="13" lengthAdjust="spacingAndGlyphs" textLength="120">Authorize Request?</text><polygon fill="#6959DB" points="384 202.598 374 206.598 384 210.598 380 206.598" style="stroke:#6959db;stroke-width:1"/><line style="stroke:#6959db;stroke-width:1" x1="378" x2="516" y1="206.598" y2="206.598"/><text x="390" y="202.166" fill="#000" font-family="sans-serif" font-size="13" lengthAdjust="spacingAndGlyphs" textLength="96">Allow/Disallow</text><polygon fill="#6959DB" points="72 231.908 62 235.908 72 239.908 68 235.908" style="stroke:#6959db;stroke-width:1"/><line style="stroke:#6959db;stroke-width:1" x1="66" x2="372" y1="235.908" y2="235.908"/><text x="78" y="231.477" fill="#000" font-family="sans-serif" font-size="13" lengthAdjust="spacingAndGlyphs" textLength="288">Open URL containg callback url and Response</text></g></svg>